<ttFont>
          <CharString index="0">
            -53 22 -22 53 vhcurveto
            return
          </CharString>
          <CharString index="1">
            vlineto
            -107 callsubr
            return
          </CharString>
          <CharString index="2">
            21 callgsubr
            -283 hlineto
            -99 callsubr
            129 hlineto
            return
          </CharString>
          <CharString index="3">
            -23 callsubr
            59 -118 -91 callsubr
            37 -94 callsubr
            -216 264 216 -106 callgsubr
            return
          </CharString>
          <CharString index="4">
            53 22 -73 callgsubr
            return
          </CharString>
          <CharString index="5">
            -98 callgsubr
            75 vlineto
            endchar
          </CharString>
          <CharString index="6">
            vlineto
            -105 callgsubr
            return
          </CharString>
          <CharString index="7">
            -92 callgsubr
            -84 callgsubr
            return
          </CharString>
          <CharString index="8">
            -107 callgsubr
            139 -56 callgsubr
            138 vlineto
            22 -6 13 -13 6 vhcurveto
            return
          </CharString>
          <CharString index="9">
            -85 callsubr
            188 return
          </CharString>
          <CharString index="10">
            hlineto
            -107 callgsubr
            return
          </CharString>
          <CharString index="11">
            -24 -8 -9 -26 vhcurveto
            -47 -91 callgsubr
            return
          </CharString>
          <CharString index="12">
            hlineto
            -101 callgsubr
            return
          </CharString>
          <CharString index="13">
            hlineto
            -87 callgsubr
            return
          </CharString>
          <CharString index="14">
            -107 callsubr
            -94 callgsubr
            return
          </CharString>
          <CharString index="15">
            hlineto
            -98 callsubr
            return
          </CharString>
          <CharString index="16">
            hlineto
            -90 callsubr
            return
          </CharString>
          <CharString index="17">
            -107 callgsubr
            301 -106 callgsubr
            return
          </CharString>
          <CharString index="18">
            vlineto
            -86 callgsubr
            return
          </CharString>
          <CharString index="19">
            -69 callsubr
            -37 -91 callgsubr
            21 59 return
          </CharString>
          <CharString index="20">
            -71 callsubr
            -155 -58 callsubr
            vlineto
            endchar
          </CharString>
          <CharString index="21">
            vlineto
            -93 callsubr
            return
          </CharString>
          <CharString index="22">
            -20 callgsubr
            139 -264 -122 -80 callsubr
            return
          </CharString>
          <CharString index="23">
            hlineto
            -107 callsubr
            -90 callgsubr
          </CharString>
          <CharString index="24">
            -9 callgsubr
            62 callgsubr
          </CharString>
          <CharString index="25">
            26 8 -19 callsubr
            return
          </CharString>
          <CharString index="26">
            -22 -53 hvcurveto
            return
          </CharString>
          <CharString index="27">
            -101 callsubr
            -30 -97 callsubr
            return
          </CharString>
          <CharString index="28">
            -26 -8 9 24 hvcurveto
            95 -12 callsubr
            138 4 callgsubr
            -104 214 121 -4 callgsubr
            return
          </CharString>
          <CharString index="29">
            -3 0 -231 -63 callsubr
            return
          </CharString>
          <CharString index="30">
            -335 -82 callgsubr
            return
          </CharString>
          <CharString index="31">
            vlineto
            -81 callgsubr
            return
          </CharString>
          <CharString index="32">
            -105 callsubr
            31 callgsubr
            return
          </CharString>
          <CharString index="33">
            -61 callgsubr
            -349 -71 callsubr
            return
          </CharString>
          <CharString index="34">
            1 5 0 5 6 vvcurveto
            167 vlineto
            22 -6 13 -13 6 vhcurveto
            return
          </CharString>
          <CharString index="35">
            vlineto
            -103 callsubr
            return
          </CharString>
          <CharString index="36">
            hlineto
            -103 callgsubr
            return
          </CharString>
          <CharString index="37">
            -26 callgsubr
            426 rmoveto
            -26 198 callsubr
            return
          </CharString>
          <CharString index="38">
            -26 -8 -25 callgsubr
            return
          </CharString>
          <CharString index="39">
            rmoveto
            -108 78 108 hlineto
            -372 38 callgsubr
            223 16 callsubr
            return
          </CharString>
          <CharString index="40">
            -257 -106 callsubr
            return
          </CharString>
          <CharString index="41">
            -65 callgsubr
            -53 -22 -22 -53 hvcurveto
            return
          </CharString>
          <CharString index="42">
            hlineto
            24 16 5 9 11 hvcurveto
            -9 28 callsubr
            return
          </CharString>
          <CharString index="43">
            vlineto
            -53 26 -26 53 vhcurveto
            return
          </CharString>
          <CharString index="44">
            -95 callsubr
            70 hlineto
            -37 callgsubr
            return
          </CharString>
          <CharString index="45">
            485 -68 callsubr
            return
          </CharString>
          <CharString index="46">
            -59 -39 callgsubr
            return
          </CharString>
          <CharString index="47">
            hlineto
            -26 -8 8 26 hvcurveto
            return
          </CharString>
          <CharString index="48">
            hlineto
            -53 callsubr
            return
          </CharString>
          <CharString index="49">
            -75 -61 callsubr
            return
          </CharString>
          <CharString index="50">
            -107 callsubr
            466 -102 callgsubr
            126 -264 -109 -23 callgsubr
            return
          </CharString>
          <CharString index="51">
            26 8 -8 -26 87 callsubr
            -65 return
          </CharString>
          <CharString index="52">
            -15 callsubr
            86 -197 hlineto
            -105 callgsubr
            return
          </CharString>
          <CharString index="53">
            hlineto
            26 5 -5 -26 hvcurveto
            return
          </CharString>
          <CharString index="54">
            -26 -5 5 26 hvcurveto
            return
          </CharString>
          <CharString index="55">
            -14 -11 -3 -6 -7 hvcurveto
            87 return
          </CharString>
          <CharString index="56">
            hlineto
            53 26 26 53 hvcurveto
            return
          </CharString>
          <CharString index="57">
            -53 22 -22 53 vhcurveto
            110 callgsubr
          </CharString>
          <CharString index="58">
            66 callgsubr
            -136 vlineto
            113 callsubr
            -130 -106 callsubr
            300 -104 callgsubr
            228 -264 -57 220 callsubr
            -75 -60 callsubr
            94 -88 callgsubr
            return
          </CharString>
          <CharString index="59">
            73 callsubr
            -35 -59 callsubr
            115 -254 -126 125 callgsubr
            185 -46 callgsubr
            -244 -59 callsubr
            158 137 callgsubr
            -115 254 126 -46 callgsubr
            -447 125 callsubr
            244 -54 callsubr
            return
          </CharString>
          <CharString index="60">
            -69 callsubr
            -47 -97 callsubr
            return
          </CharString>
          <CharString index="61">
            73 callsubr
            -19 -59 callsubr
            72 -232 -83 -64 callsubr
            395 -51 callsubr
            113 -46 callgsubr
            -208 -59 callsubr
            93 -48 callgsubr
            13 -54 callsubr
            -72 232 83 -46 callgsubr
            -389 -2 callsubr
            -115 -64 callsubr
            208 -54 callsubr
            return
          </CharString>
          <CharString index="62">
            rmoveto
            255 150 -255 hlineto
            return
          </CharString>
          <CharString index="63">
            -26 -5 -5 -26 vhcurveto
            return
          </CharString>
          <CharString index="64">
            25 callsubr
            -228 rlineto
            -5 -6 -8 -2 -13 hhcurveto
            return
          </CharString>
          <CharString index="65">
            rmoveto
            -43 callsubr
            return
          </CharString>
          <CharString index="66">
            rmoveto
            -47 callgsubr
            return
          </CharString>
          <CharString index="67">
            -351 -92 callsubr
            return
          </CharString>
          <CharString index="68">
            -53 -26 -26 -53 hvcurveto
            return
          </CharString>
          <CharString index="69">
            485 -36 callgsubr
            return
          </CharString>
          <CharString index="70">
            53 -22 22 -53 vhcurveto
            -464 hlineto
            -53 -22 -22 -53 hvcurveto
            -106 264 -27 callsubr
            return
          </CharString>
          <CharString index="71">
            264 155 callsubr
          </CharString>
          <CharString index="72">
            vlineto
            162 callsubr
            return
          </CharString>
          <CharString index="73">
            vlineto
            -20 callgsubr
            169 -264 11 callgsubr
            301 68 callsubr
          </CharString>
          <CharString index="74">
            -70 callgsubr
            463 -127 vlineto
            -53 22 -22 53 vhcurveto
            return
          </CharString>
          <CharString index="75">
            301 callsubr
            hlineto
            26 8 -9 -24 87 callsubr
            -319 -187 hlineto
            -107 callsubr
            return
          </CharString>
          <CharString index="76">
            rmoveto
            22 callgsubr
            -261 90 5 callgsubr
            422 279 callgsubr
            endchar
          </CharString>
          <CharString index="77">
            264 563 return
          </CharString>
          <CharString index="78">
            -9 -24 hvcurveto
            return
          </CharString>
          <CharString index="79">
            rlineto
            128 59 -323 -24 callsubr
            return
          </CharString>
          <CharString index="80">
            89 -41 callgsubr
            return
          </CharString>
          <CharString index="81">
            vlineto
            -44 callsubr
            return
          </CharString>
          <CharString index="82">
            -426 -55 callgsubr
            return
          </CharString>
          <CharString index="83">
            hlineto
            -50 callgsubr
            return
          </CharString>
          <CharString index="84">
            -106 callsubr
            341 return
          </CharString>
          <CharString index="85">
            308 137 rmoveto
            -55 callsubr
            -380 426 rmoveto
            49 callgsubr
            59 -743 vlineto
            return
          </CharString>
          <CharString index="86">
            -65 callsubr
            272 -102 callsubr
          </CharString>
          <CharString index="87">
            -59 425 -19 callgsubr
            return
          </CharString>
          <CharString index="88">
            8 26 vhcurveto
            return
          </CharString>
          <CharString index="89">
            -103 callgsubr
            -10 callsubr
            return
          </CharString>
          <CharString index="90">
            -107 callgsubr
            111 273 -72 callsubr
            191 26 callgsubr
            return
          </CharString>
          <CharString index="91">
            -88 callgsubr
            53 59 -53 -60 callsubr
            156 -88 callgsubr
            return
          </CharString>
          <CharString index="92">
            -107 callgsubr
            164 -106 callgsubr
            return
          </CharString>
          <CharString index="93">
            -106 callsubr
            565 59 -342 280 callgsubr
            63 hlineto
            26 8 -10 -24 hvcurveto
            -89 247 98 196 callgsubr
            177 callsubr
            35 68 callsubr
          </CharString>
          <CharString index="94">
            149 callsubr
            hlineto
            -107 callsubr
            return
          </CharString>
          <CharString index="95">
            -88 callgsubr
            101 59 -101 -60 callsubr
            return
          </CharString>
          <CharString index="96">
            -107 callgsubr
            223 -106 callgsubr
            return
          </CharString>
          <CharString index="97">
            -335 -106 callsubr
            499 -102 callgsubr
            140 -89 callsubr
            -260 -59 62 -94 callsubr
            -106 vlineto
            -24 -8 -9 -26 vhcurveto
            -78 -91 callsubr
            return
          </CharString>
          <CharString index="98">
            -92 callsubr
            463 115 callsubr
            return
          </CharString>
          <CharString index="99">
            34 57 -75 86 hhcurveto
            88 202 callgsubr
            -190 -55 vlineto
            -12 -6 -8 -14 vhcurveto
            -34 -57 75 -86 hhcurveto
            -88 -2 callsubr
            -66 190 return
          </CharString>
          <CharString index="100">
            -103 callsubr
            207 -89 callsubr
            return
          </CharString>
          <CharString index="101">
            257 callsubr
            393 115 -392 220 callsubr
            return
          </CharString>
          <CharString index="102">
            53 callgsubr
            -62 -648 105 callgsubr
            -22 134 callgsubr
            return
          </CharString>
          <CharString index="103">
            rmoveto
            137 116 59 -782 301 callgsubr
            228 callgsubr
            20 14 callgsubr
            19 -102 callgsubr
            130 -89 callsubr
            -260 -59 62 -94 callsubr
            -96 236 callsubr
            281 68 callsubr
          </CharString>
          <CharString index="104">
            -95 callsubr
            69 return
          </CharString>
          <CharString index="105">
            hlineto
            -39 callsubr
            return
          </CharString>
          <CharString index="106">
            -45 callgsubr
            -240 -101 callsubr
            return
          </CharString>
          <CharString index="107">
            vlineto
            -26 -8 -8 127 callgsubr
            return
          </CharString>
          <CharString index="108">
            vlineto
            -60 callgsubr
            285 vlineto
            53 22 22 227 callsubr
          </CharString>
          <CharString index="109">
            -65 callsubr
            20 callsubr
            return
          </CharString>
          <CharString index="110">
            2 callsubr
            88 -426 -36 callsubr
          </CharString>
          <CharString index="111">
            -39 callsubr
            -464 -64 callsubr
            return
          </CharString>
          <CharString index="112">
            75 vlineto
            endchar
          </CharString>
          <CharString index="113">
            rmoveto
            -254 -543 hlineto
            -53 26 -26 53 vhcurveto
            465 149 callgsubr
            -254 -532 58 callgsubr
            return
          </CharString>
          <CharString index="114">
            -351 9 callgsubr
          </CharString>
          <CharString index="115">
            -426 261 563 75 return
          </CharString>
          <CharString index="116">
            153 callsubr
            615 -40 callgsubr
            return
          </CharString>
          <CharString index="117">
            109 callsubr
            250 86 callsubr
            -57 53 -273 -190 273 78 280 hlineto
            114 callsubr
            return
          </CharString>
          <CharString index="118">
            -137 -45 callsubr
            return
          </CharString>
          <CharString index="119">
            vlineto
            -70 callgsubr
            return
          </CharString>
          <CharString index="120">
            rmoveto
            -33 -16 -9 -17 -9 hvcurveto
            26 302 callgsubr
            397 vlineto
            21 12 -19 callsubr
            28 -54 callsubr
            -395 240 406 111 callsubr
          </CharString>
          <CharString index="121">
            -59 1107 hlineto
            20 callgsubr
            return
          </CharString>
          <CharString index="122">
            rmoveto
            73 hlineto
            163 161 rlineto
            84 -236 vlineto
            return
          </CharString>
          <CharString index="123">
            -106 callgsubr
            82 hlineto
            return
          </CharString>
          <CharString index="124">
            hlineto
            48 callsubr
            return
          </CharString>
          <CharString index="125">
            115 callgsubr
            248 -102 callgsubr
            return
          </CharString>
          <CharString index="126">
            rmoveto
            117 73 callgsubr
            -117 vlineto
            return
          </CharString>
          <CharString index="127">
            473 26 callsubr
            return
          </CharString>
          <CharString index="128">
            -342 -393 37 callgsubr
            return
          </CharString>
          <CharString index="129">
            -53 -22 -22 -53 hvcurveto
            -257 45 callgsubr
            return
          </CharString>
          <CharString index="130">
            -13 -6 -6 -13 -22 vvcurveto
            return
          </CharString>
          <CharString index="131">
            -60 -30 -30 -60 hvcurveto
            -16 vlineto
            -61 4 -52 0 vhcurveto
            0 -10 69 -18 67 vhcurveto
            -23 83 rlineto
            -139 hlineto
            35 -82 20 -47 22 -50 23 -51 rlinecurve
            -9 hlineto
            -35 55 -34 52 -39 45 -68 78 rcurveline
            -245 hlineto
            162 -151 return
          </CharString>
          <CharString index="132">
            -107 callgsubr
            87 12 callgsubr
            return
          </CharString>
          <CharString index="133">
            -102 callgsubr
            273 return
          </CharString>
          <CharString index="134">
            -59 415 -78 -279 vlineto
            -103 callgsubr
            -70 -106 callsubr
            269 114 callgsubr
            -62 53 -278 -190 278 78 285 -102 callgsubr
            96 -89 callsubr
            -269 237 callgsubr
            return
          </CharString>
          <CharString index="135">
            12 18 -5 24 hhcurveto
            return
          </CharString>
          <CharString index="136">
            -98 124 rlineto
            39 -31 -32 9 -77 hhcurveto
            -228 -59 27 hlineto
            45 22 -3 -31 27 hvcurveto
            107 -125 -224 -267 rlineto
            293 hlineto
            176 222 rlineto
            return
          </CharString>
          <CharString index="137">
            rmoveto
            -228 hlineto
            -136 -155 rlineto
            186 hlineto
            return
          </CharString>
          <CharString index="138">
            -80 callgsubr
            132 hlineto
            -37 callgsubr
            -67 callsubr
            return
          </CharString>
          <CharString index="139">
            285 -72 callsubr
            return
          </CharString>
          <CharString index="140">
            hlineto
            -1 callgsubr
            return
          </CharString>
          <CharString index="141">
            vlineto
            -98 callsubr
            return
          </CharString>
          <CharString index="142">
            rmoveto
            272 callsubr
            -408 151 callsubr
            408 48 callgsubr
          </CharString>
          <CharString index="143">
            23 callsubr
            -98 -76 callsubr
            -118 -106 callsubr
            return
          </CharString>
          <CharString index="144">
            21 callgsubr
            -19 -60 callsubr
            137 -88 callgsubr
            19 hlineto
            -59 callgsubr
            return
          </CharString>
          <CharString index="145">
            -101 callsubr
            -62 return
          </CharString>
          <CharString index="146">
            339 rmoveto
            -103 hlineto
            -73 callsubr
            121 hlineto
            -366 -191 rmoveto
            -105 callgsubr
            -65 return
          </CharString>
          <CharString index="147">
            -53 -22 -22 -53 hvcurveto
            -257 228 callsubr
            273 return
          </CharString>
          <CharString index="148">
            111 callgsubr
            183 92 rmoveto
            -61 callgsubr
            -327 -24 callsubr
            327 hlineto
            53 21 -73 callgsubr
            5 hlineto
            -53 21 -22 53 vhcurveto
            328 -102 callgsubr
            257 -89 callsubr
            return
          </CharString>
          <CharString index="149">
            77 callgsubr
            -62 return
          </CharString>
          <CharString index="150">
            -59 75 -488 hlineto
            50 callgsubr
          </CharString>
          <CharString index="151">
            -86 callgsubr
            -454 307 callgsubr
            264 45 86 callgsubr
            -104 32 callgsubr
            -137 vlineto
            return
          </CharString>
          <CharString index="152">
            -76 callsubr
            177 callgsubr
            790 -102 callgsubr
            335 vlineto
            return
          </CharString>
          <CharString index="153">
            rmoveto
            147 -202 rlineto
            264 hlineto
            -147 202 rlineto
            return
          </CharString>
          <CharString index="154">
            161 callgsubr
            -281 -101 callsubr
            -389 -60 callsubr
            133 -16 callsubr
            258 hlineto
            10 -691 21 callgsubr
            -110 279 callsubr
            144 hlineto
            452 543 rmoveto
            59 return
          </CharString>
          <CharString index="155">
            -24 -8 -9 -35 callgsubr
            225 hlineto
            return
          </CharString>
          <CharString index="156">
            46 callgsubr
            -207 return
          </CharString>
          <CharString index="157">
            -257 159 callsubr
          </CharString>
          <CharString index="158">
            rmoveto
            26 5 -5 -26 hvcurveto
            -219 -26 callsubr
            -87 281 hlineto
            132 -563 rmoveto
            266 hlineto
            -141 223 rlineto
            36 194 callgsubr
            -46 callgsubr
            -547 -622 254 223 3 hlineto
            endchar
          </CharString>
          <CharString index="159">
            94 callgsubr
            374 104 86 callgsubr
            return
          </CharString>
          <CharString index="160">
            264 392 vlineto
            0 callgsubr
          </CharString>
          <CharString index="161">
            rmoveto
            163 130 -163 hlineto
            -703 206 rmoveto
            -59 391 -78 -254 vlineto
            -103 callgsubr
            -91 -106 callsubr
            175 callsubr
            -117 220 callsubr
            -18 -97 callsubr
            68 -264 -85 35 callgsubr
            153 1 callgsubr
            55 -88 callgsubr
            295 137 236 59 hlineto
            endchar
          </CharString>
          <CharString index="162">
            -77 callsubr
            109 8 callsubr
            hlineto
            endchar
          </CharString>
          <CharString index="163">
            -75 callsubr
            -954 -59 207 18 callgsubr
            -351 77 callgsubr
            return
          </CharString>
          <CharString index="164">
            241 callgsubr
            59 -95 -60 callsubr
            117 -88 callgsubr
            return
          </CharString>
          <CharString index="165">
            -48 callsubr
            endchar
          </CharString>
          <CharString index="166">
            21 callgsubr
            -283 -97 callsubr
            144 -56 callgsubr
            133 234 callgsubr
            return
          </CharString>
          <CharString index="167">
            -101 callsubr
            -379 -97 callsubr
            return
          </CharString>
          <CharString index="168">
            -60 callsubr
            27 -88 callgsubr
            314 137 return
          </CharString>
          <CharString index="169">
            -85 352 67 callsubr
            return
          </CharString>
          <CharString index="170">
            265 callgsubr
            43 148 callgsubr
            return
          </CharString>
          <CharString index="171">
            217 callsubr
            -342 hlineto
            -52 callsubr
            164 callsubr
            return
          </CharString>
          <CharString index="172">
            -37 callgsubr
            -21 callgsubr
          </CharString>
          <CharString index="173">
            vlineto
            145 callgsubr
            return
          </CharString>
          <CharString index="174">
            90 -46 callsubr
            return
          </CharString>
          <CharString index="175">
            -106 callgsubr
            endchar
          </CharString>
          <CharString index="176">
            719 1066 392 275 callgsubr
            4 hlineto
            -59 callgsubr
            -106 220 callsubr
            -4 -60 callsubr
            -318 277 rmoveto
            703 59 -1471 -59 505 -311 -12 hlineto
            -92 162 rlineto
            55 -31 -26 16 -96 hhcurveto
            -223 -59 32 hlineto
            60 21 -11 -44 24 hvcurveto
            72 -135 -198 -236 rlineto
            286 hlineto
            163 193 rlineto
            20 -193 263 193 return
          </CharString>
          <CharString index="177">
            -28 callsubr
            343 hlineto
            12 10 1 return
          </CharString>
          <CharString index="178">
            284 callsubr
            322 170 rmoveto
            59 -782 -59 259 247 callgsubr
            return
          </CharString>
          <CharString index="179">
            23 callsubr
            -138 -76 callsubr
            return
          </CharString>
          <CharString index="180">
            rmoveto
            -44 callsubr
            return
          </CharString>
          <CharString index="181">
            299 692 171 rmoveto
            283 callsubr
            50 -106 callgsubr
            161 59 -161 -97 callsubr
            48 -106 callgsubr
            236 137 113 hlineto
            31 callgsubr
            -1051 -59 335 -78 -195 -71 callsubr
            -51 -76 callsubr
            -53 -106 callsubr
            return
          </CharString>
          <CharString index="182">
            rmoveto
            -75 callgsubr
            162 289 callsubr
            674 196 rmoveto
            -1098 -59 776 -78 -646 152 callgsubr
            473 255 callsubr
            98 -232 vlineto
            -28 callgsubr
          </CharString>
          <CharString index="183">
            vlineto
            301 callsubr
            return
          </CharString>
          <CharString index="184">
            -86 callgsubr
            -276 -97 callsubr
            76 -264 -93 -106 callsubr
            276 -94 callsubr
            -29 return
          </CharString>
          <CharString index="185">
            387 1047 34 rmoveto
            529 72 59 -1139 -59 803 101 callsubr
            -333 return
          </CharString>
          <CharString index="186">
            485 rmoveto
            -161 hlineto
            -74 callsubr
            -240 -101 callsubr
            -42 176 callsubr
            848 vlineto
            return
          </CharString>
          <CharString index="187">
            464 -102 callgsubr
            return
          </CharString>
          <CharString index="188">
            hlineto
            84 callgsubr
            return
          </CharString>
          <CharString index="189">
            23 callsubr
            -310 -106 callsubr
            254 59 -31 -97 callsubr
            return
          </CharString>
          <CharString index="190">
            105 callsubr
            563 75 vlineto
            endchar
          </CharString>
          <CharString index="191">
            rmoveto
            186 hlineto
            178 155 rlineto
            -228 hlineto
            return
          </CharString>
          <CharString index="192">
            277 callsubr
            86 -195 hlineto
            -105 callgsubr
            return
          </CharString>
          <CharString index="193">
            hlineto
            -59 callgsubr
            -67 220 callsubr
            return
          </CharString>
          <CharString index="194">
            hvcurveto
            -157 -101 callsubr
            return
          </CharString>
          <CharString index="195">
            vlineto
            -103 callgsubr
            -196 -106 callsubr
            return
          </CharString>
          <CharString index="196">
            -65 callsubr
            110 callgsubr
          </CharString>
          <CharString index="197">
            257 callsubr
            343 115 -342 220 callsubr
            330 248 171 callgsubr
            86 59 -794 -59 75 -360 105 callsubr
            342 -88 callgsubr
            168 59 hlineto
            endchar
          </CharString>
          <CharString index="198">
            -60 -29 -30 -60 hvcurveto
            -26 vlineto
            -30 5 -29 6 -25 vhcurveto
            -14 26 -19 30 -23 29 -78 97 rcurveline
            -228 hlineto
            105 -118 return
          </CharString>
          <CharString index="199">
            714 404 170 -99 callgsubr
            967 hmoveto
            137 75 59 -1466 -59 1127 -78 -997 197 callsubr
            return
          </CharString>
          <CharString index="200">
            rmoveto
            -1102 -59 780 -78 -349 56 callgsubr
            98 -232 vlineto
            -28 callgsubr
          </CharString>
          <CharString index="201">
            622 6 callsubr
            return
          </CharString>
          <CharString index="202">
            6 callsubr
            endchar
          </CharString>
          <CharString index="203">
            rmoveto
            -718 -59 379 -45 callgsubr
            return
          </CharString>
          <CharString index="204">
            -27 -97 callsubr
            return
          </CharString>
          <CharString index="205">
            116 callsubr
            403 62 callgsubr
          </CharString>
          <CharString index="206">
            -106 callsubr
            20 callsubr
            88 -426 -36 callsubr
          </CharString>
          <CharString index="207">
            -102 callgsubr
            169 return
          </CharString>
          <CharString index="208">
            -78 -161 -63 callgsubr
            71 return
          </CharString>
          <CharString index="209">
            37 callgsubr
            -1105 -59 766 -78 -636 hlineto
            -53 -22 -22 -53 hvcurveto
            -257 99 callsubr
          </CharString>
          <CharString index="210">
            rmoveto
            231 callsubr
            499 -102 callgsubr
            92 vlineto
            endchar
          </CharString>
          <CharString index="211">
            -107 callsubr
            -85 callgsubr
            342 -88 callgsubr
            return
          </CharString>
          <CharString index="212">
            vlineto
            110 callsubr
            return
          </CharString>
          <CharString index="213">
            hlineto
            -59 callgsubr
            -116 220 callsubr
            return
          </CharString>
          <CharString index="214">
            72 callsubr
            -136 -106 callsubr
            173 hlineto
            -111 -159 rlineto
            247 hlineto
            91 159 rlineto
            9 hlineto
            85 -159 rlineto
            247 hlineto
            -103 159 rlineto
            152 -102 callgsubr
            315 vlineto
            return
          </CharString>
          <CharString index="215">
            -393 rmoveto
            -105 callgsubr
            return
          </CharString>
          <CharString index="216">
            -59 418 -78 -273 -71 callsubr
            190 callgsubr
            return
          </CharString>
          <CharString index="217">
            -107 callsubr
            38 hlineto
            -148 -218 172 callsubr
            228 rlineto
            -138 264 return
          </CharString>
          <CharString index="218">
            -46 callgsubr
            endchar
          </CharString>
          <CharString index="219">
            -18 213 callsubr
            210 -59 234 callsubr
            349 82 59 -734 -59 401 -78 -271 88 callsubr
            return
          </CharString>
          <CharString index="220">
            -29 7 -17 17 -7 vhcurveto
            -20 -71 callsubr
            return
          </CharString>
          <CharString index="221">
            -103 callsubr
            103 189 callsubr
            return
          </CharString>
          <CharString index="222">
            -127 -106 callsubr
            return
          </CharString>
          <CharString index="223">
            154 callgsubr
            -248 237 callgsubr
            return
          </CharString>
          <CharString index="224">
            174 vlineto
            -37 callsubr
            return
          </CharString>
          <CharString index="225">
            hlineto
            -59 callgsubr
            -126 220 callsubr
            -131 -59 131 hlineto
            -59 callgsubr
            -184 -101 callsubr
            201 callsubr
            114 -264 -131 vlineto
            193 callsubr
            53 22 22 53 hvcurveto
            return
          </CharString>
          <CharString index="226">
            152 -42 hlineto
            -84 11 -99 0 vhcurveto
            -5 -246 rmoveto
            -105 callgsubr
            -128 -97 callsubr
            133 -106 callgsubr
            128 -94 callsubr
            -31 92 rmoveto
            -125 -97 callsubr
            42 vlineto
            99 -7 53 2 vvcurveto
            return
          </CharString>
          <CharString index="227">
            22 7 9 21 2 vhcurveto
            return
          </CharString>
          <CharString index="228">
            -178 221 rlineto
            128 59 -323 hlineto
            return
          </CharString>
          <CharString index="229">
            272 612 59 rmoveto
            -269 -97 callsubr
            129 247 -72 callsubr
            267 373 59 -1024 -59 391 -250 vlineto
            248 callgsubr
            hlineto
            return
          </CharString>
          <CharString index="230">
            hlineto
            110 callsubr
            563 75 vlineto
            endchar
          </CharString>
          <CharString index="231">
            -102 callgsubr
            335 -89 callsubr
            return
          </CharString>
          <CharString index="232">
            -2 callsubr
            -180 -64 callsubr
            return
          </CharString>
          <CharString index="233">
            622 209 callgsubr
            return
          </CharString>
          <CharString index="234">
            233 callsubr
            37 -94 callsubr
            -203 -13 callgsubr
            237 -22 callgsubr
          </CharString>
          <CharString index="235">
            264 169 callgsubr
          </CharString>
          <CharString index="236">
            -42 callsubr
            1084 485 rmoveto
            return
          </CharString>
          <CharString index="237">
            vlineto
            -78 callgsubr
            return
          </CharString>
          <CharString index="238">
            -107 callgsubr
            223 107 callgsubr
            return
          </CharString>
          <CharString index="239">
            -59 404 hlineto
            -59 callgsubr
            -147 -101 callsubr
            -72 127 -264 -401 hlineto
            -107 callsubr
            351 59 -128 -97 callsubr
            198 280 vlineto
            -174 -178 rlineto
            288 hlineto
            return
          </CharString>
          <CharString index="240">
            rmoveto
            217 hlineto
            188 163 rlineto
            -222 hlineto
            -75 -84 -74 84 rlineto
            -222 hlineto
            return
          </CharString>
          <CharString index="241">
            206 callgsubr
            175 callsubr
            return
          </CharString>
          <CharString index="242">
            rmoveto
            -954 -59 207 hlineto
            -59 callgsubr
            -123 -101 callsubr
            return
          </CharString>
          <CharString index="243">
            rmoveto
            -24 -8 -9 -26 vhcurveto
            -70 -91 callsubr
            70 hlineto
            26 8 -9 -24 hvcurveto
            return
          </CharString>
          <CharString index="244">
            -352 56 6 callgsubr
            -622 264 622 vlineto
            return
          </CharString>
          <CharString index="245">
            465 -51 callsubr
            return
          </CharString>
          <CharString index="246">
            hlineto
            65 callsubr
          </CharString>
          <CharString index="247">
            213 callgsubr
            -48 18 -27 43 vhcurveto
            8 hlineto
            -183 -221 rlineto
            259 hlineto
            193 240 rlineto
            53 40 hlineto
            endchar
          </CharString>
          <CharString index="248">
            49 callsubr
            -215 hlineto
            -107 callsubr
            return
          </CharString>
          <CharString index="249">
            -59 93 hlineto
            82 callsubr
            return
          </CharString>
          <CharString index="250">
            -97 callsubr
            75 return
          </CharString>
          <CharString index="251">
            hlineto
            -107 callsubr
            20 callsubr
            88 -426 -36 callsubr
          </CharString>
          <CharString index="252">
            -40 callsubr
            465 -280 -36 callsubr
          </CharString>
          <CharString index="253">
            -392 hlineto
            -69 callsubr
            -107 hlineto
            131 callsubr
            return
          </CharString>
          <CharString index="254">
            -71 callsubr
            -205 vlineto
            -178 221 -28 callsubr
            343 -65 callsubr
            return
          </CharString>
          <CharString index="255">
            rmoveto
            84 hlineto
            170 213 rlineto
            77 -254 vlineto
            return
          </CharString>
          <CharString index="256">
            -59 68 -410 return
          </CharString>
          <CharString index="257">
            -13 callsubr
            330 -65 callsubr
            return
          </CharString>
          <CharString index="258">
            hlineto
            -18 callgsubr
            return
          </CharString>
          <CharString index="259">
            -47 -76 callsubr
            return
          </CharString>
          <CharString index="260">
            -104 callsubr
            69 hlineto
            return
          </CharString>
          <CharString index="261">
            -59 425 -78 -285 hlineto
            169 callsubr
            return
          </CharString>
          <CharString index="262">
            563 5 callsubr
          </CharString>
          <CharString index="263">
            -205 -34 callsubr
          </CharString>
          <CharString index="264">
            vlineto
            42 callgsubr
          </CharString>
          <CharString index="265">
            hlineto
            81 callgsubr
            return
          </CharString>
          <CharString index="266">
            -106 callsubr
            272 -102 callsubr
          </CharString>
          <CharString index="267">
            rmoveto
            -228 hlineto
            178 -155 rlineto
            186 hlineto
            endchar
          </CharString>
          <CharString index="268">
            -162 73 callsubr
            -79 -59 256 -51 callsubr
            128 -225 vlineto
            return
          </CharString>
          <CharString index="269">
            -50 callgsubr
            20 callsubr
            return
          </CharString>
          <CharString index="270">
            rmoveto
            -595 -59 169 -563 254 563 172 hlineto
            endchar
          </CharString>
          <CharString index="271">
            439 vlineto
            -59 callgsubr
            return
          </CharString>
          <CharString index="272">
            310 94 callsubr
            return
          </CharString>
          <CharString index="273">
            80 callsubr
            153 115 -173 vlineto
            -28 callgsubr
          </CharString>
          <CharString index="274">
            563 rmoveto
            180 -168 hlineto
            -84 9 -90 0 vhcurveto
            -145 -84 257 callsubr
            155 vlineto
            73 -14 82 0 vhcurveto
            181 -328 rlineto
            -11 -4 -9 -4 -18 hhcurveto
            return
          </CharString>
          <CharString index="275">
            89 callgsubr
            108 -426 112 callgsubr
          </CharString>
          <CharString index="276">
            40 callsubr
            101 252 callgsubr
            -67 callsubr
            return
          </CharString>
          <CharString index="277">
            rmoveto
            -146 147 rlineto
            -248 hlineto
            141 -147 -141 -148 rlineto
            248 hlineto
            return
          </CharString>
          <CharString index="278">
            116 callgsubr
            endchar
          </CharString>
          <CharString index="279">
            rlineto
            262 hlineto
            142 return
          </CharString>
          <CharString index="280">
            hlineto
            26 8 -10 -24 hvcurveto
            return
          </CharString>
          <CharString index="281">
            -392 -105 callsubr
            return
          </CharString>
          <CharString index="282">
            244 hlineto
            -59 callgsubr
            return
          </CharString>
          <CharString index="283">
            -97 callsubr
            393 return
          </CharString>
          <CharString index="284">
            -251 -60 callsubr
            return
          </CharString>
          <CharString index="285">
            73 callsubr
            -28 hlineto
            -26 -12 9 20 hvcurveto
            308 vlineto
            21 12 -19 callsubr
            28 -54 callsubr
            -39 90 rmoveto
            -41 -16 -15 -25 -6 hvcurveto
            return
          </CharString>
          <CharString index="286">
            -78 186 callgsubr
            return
          </CharString>
          <CharString index="287">
            254 callsubr
            -157 218 callsubr
            -48 callgsubr
            131 90 return
          </CharString>
          <CharString index="288">
            332 -98 callgsubr
            return
          </CharString>
          <CharString index="289">
            685 234 callsubr
            92 -254 231 callsubr
            return
          </CharString>
          <CharString index="290">
            rmoveto
            59 -88 126 -240 -126 -78 -59 78 -347 -64 callsubr
            248 59 -56 -59 callsubr
            336 vlineto
            endchar
          </CharString>
          <CharString index="291">
            -37 callgsubr
            -257 99 callsubr
          </CharString>
          <CharString index="292">
            hlineto
            -194 230 rlineto
            -280 305 callgsubr
            return
          </CharString>
          <CharString index="293">
            51 11 callsubr
            return
          </CharString>
          <CharString index="294">
            704 6 callgsubr
            -724 -59 724 hlineto
            return
          </CharString>
          <CharString index="295">
            -51 callsubr
            100 return
          </CharString>
          <CharString index="296">
            vlineto
            182 callgsubr
            return
          </CharString>
          <CharString index="297">
            -563 -36 callsubr
          </CharString>
          <CharString index="298">
            -237 -106 callsubr
            104 hlineto
            -171 -188 rlineto
            269 hlineto
            171 201 rlineto
            -111 -36 callsubr
          </CharString>
          <CharString index="299">
            -146 -155 rlineto
            166 hlineto
            188 155 rlineto
            return
          </CharString>
          <CharString index="300">
            220 callgsubr
            hlineto
            return
          </CharString>
          <CharString index="301">
            rmoveto
            -52 callsubr
            return
          </CharString>
          <CharString index="302">
            vlineto
            73 -9 76 0 vhcurveto
            return
          </CharString>
          <CharString index="303">
            10 1 2 8 hvcurveto
            return
          </CharString>
          <CharString index="304">
            -35 callsubr
            101 252 callgsubr
            return
          </CharString>
          <CharString index="305">
            vlineto
            -49 callgsubr
            return
          </CharString>
          <CharString index="306">
            -37 callgsubr
            50 callsubr
          </CharString>
          <CharString index="307">
            -106 callsubr
            274 hlineto
            -59 callgsubr
            -77 220 callsubr
            -48 -97 callsubr
            55 -264 return
          </CharString>
          <CharString index="308">
            -37 -97 callsubr
            return
          </CharString>
          <CharString index="309">
            89 -106 callgsubr
            return
          </CharString>
          <CharString index="310">
            -712 -188 6 callgsubr
            -31 58 -35 54 -50 61 -46 57 rcurveline
            -226 hlineto
            135 -127 rlineto
            97 -92 40 -23 0 vvcurveto
            return
          </CharString>
          <CharString index="311">
            811 209 callsubr
            return
          </CharString>
          <CharString index="312">
            209 callgsubr
            endchar
          </CharString>
          <CharString index="313">
            -76 -23 -24 -76 hvcurveto
            -5 hlineto
            76 -23 24 -76 vhcurveto
            return
          </CharString>
          <CharString index="314">
            -273 144 callsubr
          </CharString>
          <CharString index="315">
            -636 -71 callsubr
            -240 -101 callsubr
            return
          </CharString>
          <CharString index="316">
            vlineto
            212 callsubr
            return
          </CharString>
          <CharString index="317">
            -47 rmoveto
            302 callgsubr
            338 hlineto
            43 25 33 54 vhcurveto
            90 74 -41 hlineto
            -73 -39 -23 -39 -16 hvcurveto
            endchar
          </CharString>
          <CharString index="318">
            -284 vlineto
            -103 callgsubr
            return
          </CharString>
          <CharString index="319">
            -342 -44 callgsubr
            return
          </CharString>
          <CharString index="320">
            295 198 85 callsubr
            return
          </CharString>
          <CharString index="321">
            rmoveto
            -73 -39 -23 -39 -16 hvcurveto
            59 302 callgsubr
            338 vlineto
            43 25 33 54 vhcurveto
            90 74 hlineto
            endchar
          </CharString>
          <CharString index="322">
            -39 callsubr
            -77 -64 callsubr
            276 59 return
          </CharString>
          <CharString index="323">
            694 6 callgsubr
            -714 -59 714 hlineto
            return
          </CharString>
          <CharString index="324">
            rmoveto
            239 callgsubr
            return
          </CharString>
          <CharString index="325">
            -59 callsubr
            55 return
          </CharString>
          <CharString index="326">
            vlineto
            5 229 callsubr
            return
          </CharString>
          <CharString index="327">
            vlineto
            -69 callsubr
            return
          </CharString>
          <CharString index="328">
            102 hlineto
            -13 -6 -5 -13 -22 vvcurveto
            291 callsubr
            92 hlineto
            -165 -188 rlineto
            267 hlineto
            return
          </CharString>
          <CharString index="329">
            rmoveto
            -579 -59 135 callgsubr
            endchar
          </CharString>
          <CharString index="330">
            -89 callsubr
            -428 -71 callsubr
            -105 vlineto
            -29 7 -17 16 -7 vhcurveto
            -83 hlineto
            endchar
          </CharString>
          <CharString index="331">
            rmoveto
            -99 callsubr
            return
          </CharString>
          <CharString index="332">
            rmoveto
            82 callgsubr
            return
          </CharString>
          <CharString index="333">
            -75 vlineto
            -24 -7 -83 callgsubr
            -146 143 callsubr
            -211 -89 vlineto
            -48 13 -30 57 vhcurveto
            return
          </CharString>
          <CharString index="334">
            53 hvcurveto
            207 -89 callsubr
            515 hmoveto
            -339 -622 128 callsubr
          </CharString>
          <CharString index="335">
            -106 callsubr
            -43 callgsubr
            return
          </CharString>
          <CharString index="336">
            0 5 -1 5 vhcurveto
            return
          </CharString>
          <CharString index="337">
            -31 callgsubr
            693 hmoveto
            59 return
          </CharString>
          <CharString index="338">
            -75 -101 callsubr
            -73 143 callsubr
            -254 -92 -106 callsubr
            return
          </CharString>
          <CharString index="339">
            26 callsubr
            101 252 callgsubr
            -335 -106 callsubr
            return
          </CharString>
          <CharString index="340">
            264 392 -88 callgsubr
            return
          </CharString>
          <CharString index="341">
            rmoveto
            -103 callsubr
            return
          </CharString>
          <CharString index="342">
            -214 302 callsubr
            -182 -59 20 -94 callsubr
            -287 203 92 return
          </CharString>
          <CharString index="343">
            -101 callsubr
            -78 -97 callsubr
            return
          </CharString>
          <CharString index="344">
            rmoveto
            -105 callgsubr
            -52 -97 callsubr
            return
          </CharString>
          <CharString index="345">
            -106 callgsubr
            21 59 return
          </CharString>
          <CharString index="346">
            -4 0 -4 hhcurveto
            0 -162 78 return
          </CharString>
          <CharString index="347">
            -106 callgsubr
            86 return
          </CharString>
          <CharString index="348">
            rmoveto
            548 58 -548 hlineto
            return
          </CharString>
          <CharString index="349">
            -2 callsubr
            -105 -72 -59 72 300 callsubr
            118 -426 240 return
          </CharString>
          <CharString index="350">
            -167 -304 169 -318 rlineto
            265 hlineto
            -178 318 176 304 rlineto
            return
          </CharString>
          <CharString index="351">
            278 19 callsubr
            return
          </CharString>
          <CharString index="352">
            -360 296 hmoveto
            485 270 callgsubr
            vlineto
            return
          </CharString>
          <CharString index="353">
            rmoveto
            -84 hlineto
            -170 -213 rlineto
            -77 254 vlineto
            return
          </CharString>
          <CharString index="354">
            hlineto
            -50 82 rlineto
            41 -25 -21 14 -59 hhcurveto
            -181 47 hlineto
            22 -6 13 -13 6 vhcurveto
            return
          </CharString>
          <CharString index="355">
            -89 callsubr
            -116 78 hlineto
            endchar
          </CharString>
          <CharString index="356">
            97 callgsubr
            575 -240 return
          </CharString>
          <CharString index="357">
            724 6 callgsubr
            -744 -59 744 hlineto
            return
          </CharString>
          <CharString index="358">
            734 6 callgsubr
            -754 -59 754 hlineto
            return
          </CharString>
          <CharString index="359">
            rmoveto
            -14 -11 -3 -6 -7 hvcurveto
            return
          </CharString>
          <CharString index="360" raw="1">
            f79a06a5 930b  
          </CharString>
          <CharString index="361">
            -31 260 callsubr
            return
          </CharString>
          <CharString index="362">
            -102 callgsubr
            212 return
          </CharString>
          <CharString index="363">
            -105 callgsubr
            -28 215 return
          </CharString>
          <CharString index="364">
            rmoveto
            -107 callgsubr
            return
          </CharString>
          <CharString index="365" raw="1">
            f71d15a4 0a0b  
          </CharString>
          <CharString index="366">
            -78 -285 -71 callsubr
            -240 -101 callsubr
            return
          </CharString>
          <CharString index="367">
            -10 hlineto
            215 callsubr
            return
          </CharString>
          <CharString index="368">
            810 100 callgsubr
            return
          </CharString>
          <CharString index="369">
            149 callsubr
            -106 callsubr
            return
          </CharString>
          <CharString index="370">
            -78 rmoveto
            -285 -71 callsubr
            return
          </CharString>
          <CharString index="371">
            -90 10 -38 0 vhcurveto
            return
          </CharString>
          <CharString index="372">
            -102 callgsubr
            91 -259 -74 -101 callsubr
            return
          </CharString>
          <CharString index="373">
            -365 277 callsubr
            return
          </CharString>
          <CharString index="374">
            -101 callsubr
            -53 -59 236 -102 callgsubr
            return
          </CharString>
          <CharString index="375">
            -45 callsubr
            endchar
          </CharString>
          <CharString index="376">
            -98 vlineto
            -53 22 return
          </CharString>
          <CharString index="377">
            290 callgsubr
            -106 callgsubr
            31 return
          </CharString>
          <CharString index="378">
            -106 callsubr
            311 hlineto
            14 11 3 6 7 hvcurveto
            return
          </CharString>
          <CharString index="379">
            103 -46 callgsubr
            return
          </CharString>
          <CharString index="380">
            vlineto
            120 callsubr
            return
          </CharString>
          <CharString index="381">
            661 141 -661 hlineto
            return
          </CharString>
          <CharString index="382">
            rmoveto
            137 90 59 return
          </CharString>
          <CharString index="383">
            -71 callsubr
            -237 -106 callsubr
            return
          </CharString>
          <CharString index="384">
            257 callsubr
            162 -106 callgsubr
            return
          </CharString>
          <CharString index="385">
            394 6 callgsubr
            -75 155 hlineto
            -86 callgsubr
            return
          </CharString>
          <CharString index="386">
            -97 callsubr
            115 -88 callgsubr
            return
          </CharString>
          <CharString index="387">
            rmoveto
            307 hlineto
            393 307 rlineto
            180 vlineto
            endchar
          </CharString>
          <CharString index="388">
            -105 callgsubr
            -130 -97 callsubr
            return
          </CharString>
          <CharString index="389">
            309 callsubr
            -451 hlineto
            -69 callsubr
            return
          </CharString>
          <CharString index="390">
            -69 callsubr
            -315 -97 callsubr
            return
          </CharString>
          <CharString index="391">
            -106 callgsubr
            70 -94 callsubr
            return
          </CharString>
          <CharString index="392">
            -88 callgsubr
            63 173 callsubr
            return
          </CharString>
          <CharString index="393">
            hlineto
            105 -118 75 -85 39 -27 31 -13 rlinecurve
            endchar
          </CharString>
          <CharString index="394">
            -273 hlineto
            -107 callsubr
            return
          </CharString>
          <CharString index="395">
            -118 -97 callsubr
            return
          </CharString>
          <CharString index="396">
            306 callsubr
            hlineto
            return
          </CharString>
          <CharString index="397">
            124 257 callsubr
            return
          </CharString>
          <CharString index="398">
            -212 -106 callsubr
            return
          </CharString>
          <CharString index="399">
            rmoveto
            137 75 59 return
          </CharString>
          <CharString index="400">
            3 735 6 callgsubr
            -755 -59 755 hlineto
            return
          </CharString>
          <CharString index="401">
            -21 306 callgsubr
            return
          </CharString>
          <CharString index="402">
            196 callsubr
            -6 -106 callsubr
            return
          </CharString>
          <CharString index="403">
            230 238 59 -238 215 279 59 return
          </CharString>
          <CharString index="404">
            -360 296 hmoveto
            484 -240 -484 vlineto
            return
          </CharString>
          <CharString index="405">
            -89 callsubr
            endchar
          </CharString>
          <CharString index="406">
            hlineto
            15 2 -3 -14 hvcurveto
            return
          </CharString>
          <CharString index="407">
            -426 240 426 return
          </CharString>
          <CharString index="408">
            24 8 9 26 vhcurveto
            16 return
          </CharString>
          <CharString index="409">
            rmoveto
            -86 callgsubr
            return
          </CharString>
          <CharString index="410">
            rmoveto
            -39 callsubr
            return
          </CharString>
          <CharString index="411">
            hmoveto
            -206 57 vlineto
            107 132 rlineto
            74 vlineto
            return
          </CharString>
          <CharString index="412">
            hlineto
            14 11 2 7 7 hvcurveto
            -127 264 return
          </CharString>
          <CharString index="413">
            -106 callgsubr
            81 return
          </CharString>
          <CharString index="414">
            669 -240 -669 vlineto
            return
          </CharString>
          <CharString index="415">
            -268 215 268 vlineto
            return
          </CharString>
          <CharString index="416">
            6 callgsubr
            -339 return
          </CharString>
          <CharString index="417">
            1 3 9 hvcurveto
            return
          </CharString>
          <CharString index="418">
            485 rmoveto
            -74 -71 callsubr
            return
          </CharString>
          <CharString index="419">
            286 rmoveto
            163 130 -163 hlineto
            return
          </CharString>
          <CharString index="420">
            rmoveto
            248 126 -248 hlineto
            endchar
          </CharString>
        <CharString name=".notdef">
          -224 endchar
        </CharString>
        <CharString name="A">
          58 298 182 -30 callgsubr
        </CharString>
        <CharString name="AE">
          393 363 182 rmoveto
          167 310 rlineto
          -310 vlineto
          254 -123 286 callgsubr
          -704 vlineto
          -357 -622 rlineto
          263 hlineto
          66 123 rlineto
          199 -123 546 59 hlineto
          endchar
        </CharString>
        <CharString name="Aacute">
          54 661 824 30 callsubr
          -187 -487 -30 callgsubr
        </CharString>
        <CharString name="Abreve">
          54 581 669 72 callgsubr
          112 -487 -30 callgsubr
        </CharString>
        <CharString name="Acircumflex">
          54 382 752 rmoveto
          47 callgsubr
          -188 -163 rlineto
          222 hlineto
          -12 -486 -30 callgsubr
        </CharString>
        <CharString name="Adieresis">
          54 662 261 callsubr
          -319 141 100 callgsubr
          -47 -487 -30 callgsubr
        </CharString>
        <CharString name="Agrave">
          54 476 669 124 callgsubr
          6 -487 -30 callgsubr
        </CharString>
        <CharString name="Amacron">
          54 664 727 240 callgsubr
          -368 -487 -30 callgsubr
        </CharString>
        <CharString name="Aogonek">
          54 296 182 rmoveto
          86 295 83 -295 rlineto
          161 -389 97 callgsubr
          90 9 hlineto
          -233 622 rlineto
          -300 hlineto
          -233 -622 rlineto
          243 hlineto
          36 123 rlineto
          203 hlineto
          35 -123 rlineto
          -31 -10 vlineto
          80 callgsubr
        </CharString>
        <CharString name="Aring">
          54 329 768 51 callgsubr
          38 -487 -30 callgsubr
        </CharString>
        <CharString name="Atilde">
          54 279 725 rmoveto
          12 6 8 14 vhcurveto
          -8 callsubr
          vlineto
          17 -488 -30 callgsubr
        </CharString>
        <CharString name="B">
          25 60 6 callgsubr
          -622 543 vlineto
          53 26 26 53 hvcurveto
          155 238 callgsubr
          151 -46 callgsubr
          -163 -541 rmoveto
          -15 -12 -7 -24 vhcurveto
          -90 223 95 -54 callsubr
          121 vmoveto
          -44 callsubr
          -95 222 95 -54 callsubr
          endchar
        </CharString>
        <CharString name="C">
          2 669 390 -6 callgsubr
        </CharString>
        <CharString name="CR">
          -712 endchar
        </CharString>
        <CharString name="Cacute">
          -14 624 824 30 callsubr
          217 -279 -6 callgsubr
        </CharString>
        <CharString name="Ccaron">
          -14 461 669 -11 callgsubr
          419 -279 -6 callgsubr
        </CharString>
        <CharString name="Ccedilla">
          -14 240 161 callsubr
          423 435 -6 callgsubr
        </CharString>
        <CharString name="D">
          27 430 90 168 callgsubr
        </CharString>
        <CharString name="Dcaron">
          34 475 669 -11 callgsubr
          182 -579 168 callgsubr
        </CharString>
        <CharString name="Dcroat">
          45 136 callgsubr
        </CharString>
        <CharString name="E">
          -71 324 59 rmoveto
          230 61 callgsubr
          vlineto
          endchar
        </CharString>
        <CharString name="Eacute">
          -79 599 823 30 callsubr
          -101 -609 rmoveto
          230 61 callgsubr
          vlineto
          endchar
        </CharString>
        <CharString name="Ecaron">
          -79 445 669 -11 callgsubr
          92 -380 rmoveto
          61 callgsubr
          -292 hlineto
          endchar
        </CharString>
        <CharString name="Ecircumflex">
          -79 332 753 rmoveto
          47 callgsubr
          -188 -163 rlineto
          222 hlineto
          62 -380 rmoveto
          61 callgsubr
          -292 hlineto
          endchar
        </CharString>
        <CharString name="Edieresis">
          -7 609 261 callsubr
          -319 141 100 callgsubr
          30 -610 rmoveto
          230 61 callgsubr
          vlineto
          endchar
        </CharString>
        <CharString name="Edotaccent">
          -79 461 261 callsubr
          -141 -610 rmoveto
          230 61 callgsubr
          vlineto
          endchar
        </CharString>
        <CharString name="Egrave">
          -79 434 668 124 callgsubr
          72 -609 rmoveto
          230 61 callgsubr
          vlineto
          endchar
        </CharString>
        <CharString name="Emacron">
          -79 599 727 240 callgsubr
          -279 -610 rmoveto
          230 61 callgsubr
          vlineto
          endchar
        </CharString>
        <CharString name="Eogonek">
          -79 481 -207 97 callgsubr
          149 -292 296 callsubr
          -543 -622 316 254 callsubr
          hlineto
          endchar
        </CharString>
        <CharString name="Eth">
          31 136 callgsubr
        </CharString>
        <CharString name="Euro">
          16 692 390 rmoveto
          153 -46 callgsubr
          -456 -2 callsubr
          -138 -62 -59 62 -69 -62 -59 62 -139 -64 callsubr
          456 -51 callsubr
          150 -254 -139 -26 callsubr
          -44 -59 callsubr
          128 77 59 -77 69 77 59 -77 127 -48 callgsubr
          44 -54 callsubr
          -142 vlineto
          endchar
        </CharString>
        <CharString name="F">
          -84 603 304 callgsubr
          -543 -622 264 265 240 59 -240 239 vlineto
          endchar
        </CharString>
        <CharString name="G">
          8 670 409 27 callgsubr
        </CharString>
        <CharString name="Gbreve">
          -6 555 669 72 callgsubr
          506 -260 27 callgsubr
        </CharString>
        <CharString name="H">
          71 469 6 callgsubr
          -281 -155 281 -254 -622 254 282 155 -282 254 622 vlineto
          endchar
        </CharString>
        <CharString name="I">
          -318 65 6 callgsubr
          -622 264 622 vlineto
          endchar
        </CharString>
        <CharString name="Iacute">
          137 callsubr
          -219 46 84 callsubr
          endchar
        </CharString>
        <CharString name="Icircumflex">
          137 callsubr
          -427 47 rmoveto
          222 hlineto
          74 84 47 callgsubr
          endchar
        </CharString>
        <CharString name="Idieresis">
          137 callsubr
          -408 187 195 callgsubr
          80 hmoveto
          171 callsubr
        </CharString>
        <CharString name="Idotaccent">
          137 callsubr
          -254 188 rmoveto
          171 callsubr
        </CharString>
        <CharString name="Igrave">
          137 callsubr
          -174 202 160 callsubr
        </CharString>
        <CharString name="Imacron">
          137 callsubr
          -405 47 241 callsubr
          endchar
        </CharString>
        <CharString name="Iogonek">
          -352 189 -207 97 callgsubr
          712 -264 -622 24 254 callsubr
          hlineto
          endchar
        </CharString>
        <CharString name="J">
          -56 20 249 rmoveto
          -170 -64 callsubr
          423 149 callgsubr
          -254 176 callgsubr
          -11 -59 callsubr
          159 vlineto
          endchar
        </CharString>
        <CharString name="K">
          47 476 6 callgsubr
          243 callsubr
          -681 hmoveto
          -622 247 622 vlineto
          endchar
        </CharString>
        <CharString name="L">
          -114 314 59 201 callgsubr
        </CharString>
        <CharString name="Lacute">
          -128 458 823 30 callsubr
          30 -609 201 callgsubr
        </CharString>
        <CharString name="Lcaron">
          -128 288 669 -11 callgsubr
          239 -610 201 callgsubr
        </CharString>
        <CharString name="Lslash">
          -100 324 59 rmoveto
          252 vlineto
          148 49 rlineto
          72 vlineto
          -148 -49 rlineto
          239 -254 -323 vlineto
          -125 -42 rlineto
          -71 vlineto
          125 41 rlineto
          -227 528 59 vlineto
          endchar
        </CharString>
        <CharString name="M">
          240 551 135 rmoveto
          111 280 rlineto
          -415 230 622 -269 vlineto
          -147 -362 -146 362 rlineto
          -270 -622 230 413 hlineto
          112 -278 rlineto
          endchar
        </CharString>
        <CharString name="N">
          47 464 126 callsubr
          endchar
        </CharString>
        <CharString name="NULL">
          -712 endchar
        </CharString>
        <CharString name="Nacute">
          40 276 669 84 callsubr
          48 -202 205 callsubr
        </CharString>
        <CharString name="Ncaron">
          40 263 669 133 callsubr
          385 -210 205 callsubr
        </CharString>
        <CharString name="Ntilde">
          40 460 126 callsubr
          -383 122 rmoveto
          -8 callsubr
          55 vlineto
          12 6 8 14 vhcurveto
          endchar
        </CharString>
        <CharString name="O">
          21 678 543 44 callgsubr
        </CharString>
        <CharString name="OE">
          297 434 219 callgsubr
          -63 -59 callsubr
          442 -48 callgsubr
          63 -54 callsubr
          254 -473 286 callgsubr
          -463 -11 vlineto
          7 -19 -22 4 -28 hhcurveto
          -301 hlineto
          4 callsubr
          301 hlineto
          28 22 4 7 19 hvcurveto
          -11 476 59 vlineto
          endchar
        </CharString>
        <CharString name="Oacute">
          16 277 669 84 callsubr
          262 -281 44 callgsubr
        </CharString>
        <CharString name="Ocircumflex">
          16 69 669 rmoveto
          222 hlineto
          74 84 47 callgsubr
          418 -289 44 callgsubr
        </CharString>
        <CharString name="Odieresis">
          -7 675 543 -42 callgsubr
          -17 279 141 callgsubr
        </CharString>
        <CharString name="Ograve">
          16 675 543 -42 callgsubr
          -95 293 160 callsubr
        </CharString>
        <CharString name="Ohungarumlaut">
          -7 131 622 rmoveto
          4 callsubr
          138 callsubr
          464 -46 callgsubr
          -175 -90 rmoveto
          -442 58 callgsubr
          442 73 callgsubr
          -121 293 rmoveto
          193 callgsubr
          59 hmoveto
          192 callsubr
          endchar
        </CharString>
        <CharString name="Omacron">
          16 85 669 241 callsubr
          590 -184 44 callgsubr
        </CharString>
        <CharString name="Oslash">
          16 431 219 callgsubr
          -73 -59 callsubr
          78 vlineto
          135 161 rlineto
          -135 203 rmoveto
          26 5 5 26 vhcurveto
          73 -54 callsubr
          -89 vlineto
          -135 -161 rlineto
          413 379 rmoveto
          -95 hlineto
          -33 -39 rlineto
          -450 -2 callsubr
          -464 vlineto
          -28 7 -21 15 -13 vhcurveto
          -47 -56 rlineto
          95 hlineto
          33 39 rlineto
          441 -51 callsubr
          464 vlineto
          25 -6 19 -11 13 vhcurveto
          endchar
        </CharString>
        <CharString name="Otilde">
          16 675 543 -42 callgsubr
          -128 212 rmoveto
          -8 callsubr
          55 vlineto
          12 6 8 14 vhcurveto
          endchar
        </CharString>
        <CharString name="P">
          4 432 293 73 callsubr
          -87 301 87 -54 callsubr
          -372 90 rmoveto
          -622 254 203 293 vlineto
          53 26 26 53 hvcurveto
          261 111 callsubr
        </CharString>
        <CharString name="Q">
          24 304 532 rmoveto
          26 5 5 26 vhcurveto
          63 -54 callsubr
          -442 -26 callsubr
          -63 -59 callsubr
          392 -187 rmoveto
          -129 97 rlineto
          32 -51 callsubr
          464 -46 callgsubr
          -465 hlineto
          4 callsubr
          168 hlineto
          114 -97 rlineto
          endchar
        </CharString>
        <CharString name="R">
          21 401 563 51 callsubr
        </CharString>
        <CharString name="Racute">
          13 620 824 30 callsubr
          -45 -106 51 callsubr
        </CharString>
        <CharString name="Rcaron">
          13 467 669 -11 callgsubr
          147 -106 51 callsubr
        </CharString>
        <CharString name="S">
          -17 396 90 58 callsubr
        </CharString>
        <CharString name="Sacute">
          -20 267 669 84 callsubr
          -7 -734 58 callsubr
        </CharString>
        <CharString name="Scaron">
          -20 237 669 133 callsubr
          347 -742 58 callsubr
        </CharString>
        <CharString name="T">
          -107 600 622 163 callsubr
        </CharString>
        <CharString name="Tcaron">
          -103 409 669 -11 callgsubr
          410 -47 163 callsubr
        </CharString>
        <CharString name="Thorn">
          4 425 192 73 callsubr
          -77 300 77 -54 callsubr
          -108 90 rmoveto
          102 -254 -622 254 102 283 vlineto
          53 26 26 53 hvcurveto
          260 111 callsubr
        </CharString>
        <CharString name="U">
          21 309 94 callsubr
          endchar
        </CharString>
        <CharString name="Uacute">
          24 277 669 84 callsubr
          -103 -202 95 callsubr
        </CharString>
        <CharString name="Ucircumflex">
          24 72 669 rmoveto
          222 hlineto
          74 84 47 callgsubr
          50 -210 95 callsubr
        </CharString>
        <CharString name="Udieresis">
          191 callgsubr
          465 149 callgsubr
          vlineto
          -591 188 195 callgsubr
          80 hmoveto
          171 callsubr
        </CharString>
        <CharString name="Ugrave">
          24 165 callsubr
          22 735 160 callsubr
        </CharString>
        <CharString name="Uhungarumlaut">
          -7 165 callsubr
          256 733 rmoveto
          192 callsubr
          -475 hmoveto
          193 callgsubr
          endchar
        </CharString>
        <CharString name="Umacron">
          24 165 callsubr
          -216 579 241 callsubr
          endchar
        </CharString>
        <CharString name="Uogonek">
          191 callgsubr
          113 180 callsubr
          112 149 callgsubr
          vlineto
          endchar
        </CharString>
        <CharString name="Uring">
          24 574 779 121 callgsubr
          -114 -146 95 callsubr
        </CharString>
        <CharString name="V">
          28 479 6 callgsubr
          -110 -456 -109 456 rlineto
          -256 hlineto
          223 -622 rlineto
          286 hlineto
          223 622 rlineto
          endchar
        </CharString>
        <CharString name="W">
          447 911 6 callgsubr
          -91 -444 -121 444 rlineto
          -241 hlineto
          -121 -444 -76 444 rlineto
          -257 hlineto
          192 -622 rlineto
          283 hlineto
          100 371 100 -371 rlineto
          284 hlineto
          192 622 rlineto
          endchar
        </CharString>
        <CharString name="X">
          25 495 326 rmoveto
          207 296 rlineto
          -255 hlineto
          -86 -164 -85 164 rlineto
          -269 hlineto
          220 -316 -226 -306 rlineto
          252 hlineto
          108 179 107 -179 rlineto
          268 hlineto
          endchar
        </CharString>
        <CharString name="Y">
          26 735 622 128 callgsubr
        </CharString>
        <CharString name="Yacute">
          20 629 824 30 callsubr
          281 -47 128 callgsubr
        </CharString>
        <CharString name="Ydieresis">
          26 336 261 callsubr
          319 141 100 callgsubr
          80 -47 128 callgsubr
        </CharString>
        <CharString name="Z">
          -54 628 622 222 callsubr
        </CharString>
        <CharString name="Zacute">
          -58 608 824 30 callsubr
          196 215 callgsubr
        </CharString>
        <CharString name="Zcaron">
          -58 460 669 -11 callgsubr
          -196 -106 rmoveto
          135 callgsubr
          59 -579 vlineto
          endchar
        </CharString>
        <CharString name="Zdotaccent">
          -58 469 261 callsubr
          157 215 callgsubr
        </CharString>
        <CharString name="a">
          -30 321 59 -70 callsubr
          -26 240 485 vlineto
          endchar
        </CharString>
        <CharString name="aacute">
          -37 615 687 30 callsubr
          -124 108 callgsubr
          -26 240 485 vlineto
          endchar
        </CharString>
        <CharString name="abreve">
          -37 538 532 72 callgsubr
          172 108 callgsubr
          -26 240 485 vlineto
          endchar
        </CharString>
        <CharString name="acircumflex">
          -37 339 616 rmoveto
          47 callgsubr
          -188 -163 rlineto
          222 hlineto
          48 -473 rmoveto
          102 callgsubr
          endchar
        </CharString>
        <CharString name="acute">
          -7 166 506 84 callsubr
          endchar
        </CharString>
        <CharString name="adieresis">
          -37 313 672 100 callgsubr
          -472 vmoveto
          102 callgsubr
          14 187 rmoveto
          171 callsubr
        </CharString>
        <CharString name="ae">
          326 619 278 rmoveto
          117 -48 callgsubr
          59 -54 callsubr
          -117 vlineto
          -420 -219 173 callgsubr
          99 vlineto
          97 24 rlineto
          -123 -26 callsubr
          263 426 rmoveto
          -97 -10 -10 -26 -8 hvcurveto
          26 -9 -25 10 -96 hhcurveto
          -245 -2 callsubr
          -107 240 98 137 callgsubr
          -117 vlineto
          -337 -78 rlineto
          -123 -64 callsubr
          245 285 callgsubr
          276 -51 callsubr
          83 -233 -72 -26 callsubr
          -59 -59 callsubr
          129 354 139 callgsubr
          endchar
        </CharString>
        <CharString name="agrave">
          -37 479 532 124 callgsubr
          20 108 callgsubr
          -26 240 485 vlineto
          endchar
        </CharString>
        <CharString name="amacron">
          -37 611 600 240 callgsubr
          -298 -483 -70 callsubr
          -26 240 485 vlineto
          endchar
        </CharString>
        <CharString name="ampersand">
          180 316 59 173 callgsubr
          93 vlineto
          14 6 9 10 6 vhcurveto
          180 -153 rlineto
          -138 473 rmoveto
          26 5 5 26 vhcurveto
          41 -54 callsubr
          -119 vlineto
          -22 -18 -11 -37 -14 vhcurveto
          -38 34 -10 18 34 vvcurveto
          535 -497 rmoveto
          -69 58 rlineto
          28 16 15 29 41 vvcurveto
          144 -195 -102 vlineto
          -169 142 42 16 rlineto
          97 36 59 29 77 vvcurveto
          102 -46 callgsubr
          -425 -2 callsubr
          -94 vlineto
          -63 26 -26 71 -61 vhcurveto
          -22 -8 rlineto
          -100 -35 -33 -24 -66 vvcurveto
          -87 -64 callsubr
          426 hlineto
          53 -45 rlineto
          endchar
        </CharString>
        <CharString name="aogonek">
          -37 313 59 -41 callsubr
          147 -266 249 callsubr
          -26 hlineto
          -49 callgsubr
          -57 -10 vlineto
          80 callgsubr
        </CharString>
        <CharString name="approxequal">
          116 316 412 rmoveto
          76 callgsubr
          -220 vmoveto
          76 callgsubr
          endchar
        </CharString>
        <CharString name="aring">
          -37 284 632 51 callgsubr
          100 -474 -70 callsubr
          -26 240 485 vlineto
          endchar
        </CharString>
        <CharString name="asciicircum">
          -54 186 668 rmoveto
          -183 -340 rlineto
          216 hlineto
          109 214 110 -214 rlineto
          217 hlineto
          -183 340 rlineto
          endchar
        </CharString>
        <CharString name="asciitilde">
          106 311 252 rmoveto
          76 callgsubr
          endchar
        </CharString>
        <CharString name="asterisk">
          -90 229 669 rmoveto
          -59 vlineto
          -34 8 -34 11 -30 vhcurveto
          -26 22 -31 21 -33 11 -56 18 rcurveline
          -54 -166 56 -18 rlineto
          -11 32 36 -2 32 hhcurveto
          -29 -17 -30 -23 -21 -28 -35 -48 rcurveline
          142 -102 34 47 20 28 14 33 9 30 rlinecurve
          7 -32 13 -36 20 -29 35 -48 rcurveline
          141 104 -34 47 -20 27 -27 23 -26 18 rlinecurve
          33 -3 37 1 34 11 57 18 rcurveline
          -56 166 -55 -18 -32 -11 -30 -18 -25 -19 rlinecurve
          13 31 10 35 36 vvcurveto
          59 vlineto
          endchar
        </CharString>
        <CharString name="at">
          475 411 426 rmoveto
          -40 -20 -20 -40 hvcurveto
          -228 vlineto
          -40 20 -20 40 vhcurveto
          185 hlineto
          27 13 8 15 6 hvcurveto
          -42 430 vlineto
          40 20 20 40 hvcurveto
          384 vlineto
          40 -20 20 -40 vhcurveto
          -952 hlineto
          -40 -20 -20 -40 hvcurveto
          -513 vlineto
          -40 20 -20 40 vhcurveto
          719 59 -564 hlineto
          -20 -3 3 20 hvcurveto
          469 vlineto
          20 3 3 20 vhcurveto
          642 hlineto
          20 3 -3 -20 hvcurveto
          -340 vlineto
          -20 -3 -3 -20 vhcurveto
          -85 308 -192 -20 hlineto
          13 -7 -13 7 -24 hhcurveto
          -53 -82 rmoveto
          19 3 4 20 vhcurveto
          45 hlineto
          18 9 -5 -14 2 hvcurveto
          -193 vlineto
          -13 -2 -9 -5 -18 hhcurveto
          -45 hlineto
          -20 -3 3 20 hvcurveto
          endchar
        </CharString>
        <CharString name="atilde">
          -37 249 587 rmoveto
          12 6 8 14 vhcurveto
          -8 callsubr
          vlineto
          64 108 callgsubr
          -26 240 485 vlineto
          endchar
        </CharString>
        <CharString name="b">
          -30 392 219 callgsubr
          -28 hlineto
          -26 -12 9 20 hvcurveto
          309 vlineto
          21 12 -19 callsubr
          28 -54 callsubr
          -39 90 rmoveto
          -33 -16 -9 -17 -9 hvcurveto
          210 -240 -669 240 26 216 callgsubr
          327 111 callsubr
        </CharString>
        <CharString name="backslash">
          -168 -60 699 rmoveto
          431 -835 rlineto
          203 hlineto
          -431 835 rlineto
          endchar
        </CharString>
        <CharString name="bar">
          -363 65 807 rmoveto
          -994 219 994 vlineto
          endchar
        </CharString>
        <CharString name="braceleft">
          -267 378 539 rmoveto
          72 8 49 60 vhcurveto
          13 59 -44 hlineto
          -189 -102 -44 -194 hvcurveto
          -119 vlineto
          -55 -25 -25 -70 vhcurveto
          -9 -59 9 hlineto
          70 25 -24 -54 hvcurveto
          -128 vlineto
          -194 102 -44 189 vhcurveto
          44 59 -13 hlineto
          -60 -8 49 72 hvcurveto
          162 vlineto
          70 -34 56 -68 3 vhcurveto
          68 2 34 56 71 vvcurveto
          endchar
        </CharString>
        <CharString name="braceright">
          -247 87 379 rmoveto
          -71 34 -56 68 -2 vhcurveto
          -68 -3 -34 -56 -70 vvcurveto
          -162 vlineto
          -72 -8 -49 -60 vhcurveto
          -13 -59 44 hlineto
          189 102 44 194 hvcurveto
          128 vlineto
          54 25 24 70 vhcurveto
          9 59 -9 hlineto
          -70 -25 25 55 hvcurveto
          119 vlineto
          194 -102 44 -189 vhcurveto
          -44 -59 13 hlineto
          60 8 -49 -72 hvcurveto
          endchar
        </CharString>
        <CharString name="bracketleft">
          -313 432 660 rmoveto
          59 -377 -939 377 59 -123 821 vlineto
          endchar
        </CharString>
        <CharString name="bracketright">
          -313 344 719 rmoveto
          -377 -59 123 -821 -123 -59 377 hlineto
          endchar
        </CharString>
        <CharString name="breve">
          -7 419 661 rmoveto
          -55 -26 callsubr
          -71 218 callsubr
          -211 -66 -64 callsubr
          397 202 callgsubr
          vlineto
          endchar
        </CharString>
        <CharString name="brokenbar">
          -363 65 254 rmoveto
          -441 219 441 vlineto
          112 vmoveto
          441 -219 -441 vlineto
          endchar
        </CharString>
        <CharString name="bullet">
          -154 279 454 rmoveto
          -114 -95 -64 -79 -78 95 -65 114 114 95 65 78 79 -95 64 -114 hvcurveto
          endchar
        </CharString>
        <CharString name="c">
          -61 616 303 35 callsubr
        </CharString>
        <CharString name="cacute">
          -76 600 687 30 callsubr
          186 -229 35 callsubr
        </CharString>
        <CharString name="caron">
          -7 244 496 133 callsubr
          endchar
        </CharString>
        <CharString name="ccaron">
          -76 427 532 -11 callgsubr
          -89 -47 5 callgsubr
          408 23 callgsubr
          232 103 111 callsubr
        </CharString>
        <CharString name="ccedilla">
          -76 220 161 callsubr
          388 348 35 callsubr
        </CharString>
        <CharString name="cedilla">
          -7 281 161 callsubr
          endchar
        </CharString>
        <CharString name="cent">
          -76 608 303 rmoveto
          272 callsubr
          -77 78 -247 -78 -84 151 callsubr
          84 -80 247 80 77 48 callgsubr
        </CharString>
        <CharString name="circumflex">
          -7 56 506 rmoveto
          222 hlineto
          74 84 47 callgsubr
          endchar
        </CharString>
        <CharString name="colon">
          -348 55 336 rmoveto
          172 callgsubr
          -485 vmoveto
          172 callgsubr
          endchar
        </CharString>
        <CharString name="comma">
          -353 55 -141 rmoveto
          84 hlineto
          170 213 rlineto
          97 -254 vlineto
          endchar
        </CharString>
        <CharString name="commaaccent">
          -7 234 -290 160 callgsubr
        </CharString>
        <CharString name="copyright">
          377 1046 338 rmoveto
          175 -75 109 -289 vhcurveto
          -276 hlineto
          -289 -75 -109 -175 hvcurveto
          -53 vlineto
          -176 75 -109 289 vhcurveto
          276 hlineto
          289 75 109 176 hvcurveto
          -593 -226 rmoveto
          -154 -58 54 154 hvcurveto
          88 vlineto
          154 58 54 154 vhcurveto
          183 hlineto
          154 58 -54 -154 hvcurveto
          -88 vlineto
          -154 -58 -54 -154 vhcurveto
          -54 181 73 callsubr
          -11 -59 callsubr
          143 -48 callgsubr
          11 -54 callsubr
          -44 165 55 -46 callgsubr
          -245 -2 callsubr
          -165 -64 callsubr
          245 -51 callsubr
          56 -165 vlineto
          endchar
        </CharString>
        <CharString name="currency">
          123 412 165 rmoveto
          -94 -36 10 96 hvcurveto
          30 vlineto
          96 36 33 94 vhcurveto
          9 hlineto
          93 37 -33 -96 hvcurveto
          -30 vlineto
          -96 -37 -10 -93 vhcurveto
          305 149 rmoveto
          29 -3 26 -9 23 vhcurveto
          66 64 -122 125 -97 -95 rlineto
          2 -18 -20 1 -22 hhcurveto
          -170 hlineto
          -21 -19 -1 -2 -17 hvcurveto
          -97 95 -122 -125 64 -63 rlineto
          -9 -23 -3 -26 -30 vvcurveto
          -32 vlineto
          -31 4 -27 9 -24 vhcurveto
          -65 -63 122 -125 99 97 rlineto
          -2 16 19 -1 20 hhcurveto
          170 hlineto
          21 19 1 2 18 hvcurveto
          99 -97 122 125 -67 65 rlineto
          9 23 4 27 30 vvcurveto
          endchar
        </CharString>
        <CharString name="d">
          -30 321 59 -26 callgsubr
          610 rmoveto
          -210 198 callsubr
          -26 240 669 vlineto
          endchar
        </CharString>
        <CharString name="dagger">
          -72 626 475 rmoveto
          -176 147 -254 -147 -182 -59 182 -557 254 557 176 hlineto
          endchar
        </CharString>
        <CharString name="daggerdbl">
          -30 646 376 rmoveto
          59 -176 187 -254 -187 -182 -59 182 -262 -182 -59 182 -196 254 196 176 59 -176 262 vlineto
          endchar
        </CharString>
        <CharString name="dcaron">
          21 379 459 rmoveto
          -49 callgsubr
          -26 240 669 -240 vlineto
          296 304 callsubr
          -526 -610 -41 callsubr
          endchar
        </CharString>
        <CharString name="dcroat">
          -30 320 59 -41 callsubr
          349 540 rmoveto
          -71 70 -240 -70 -84 -59 84 -81 hlineto
          -49 callgsubr
          -26 240 540 71 vlineto
          endchar
        </CharString>
        <CharString name="degree">
          -30 626 543 rmoveto
          53 -26 26 -53 vhcurveto
          -410 -2 callsubr
          -170 -64 callsubr
          410 -51 callsubr
          -229 11 73 callsubr
          -46 -59 callsubr
          148 -48 callgsubr
          46 -54 callsubr
          endchar
        </CharString>
        <CharString name="dieresis">
          -7 393 658 141 callgsubr
        </CharString>
        <CharString name="divide">
          40 31 239 rmoveto
          274 callsubr
          206 140 rmoveto
          -101 250 101 vlineto
          -250 -320 rmoveto
          -101 250 101 vlineto
          endchar
        </CharString>
        <CharString name="dollar">
          -17 320 343 173 callgsubr
          158 -48 callgsubr
          49 -54 callsubr
          -105 247 116 -46 callgsubr
          -99 92 -247 -92 -101 125 callsubr
          251 -54 callsubr
          -163 -26 callsubr
          -49 -59 callsubr
          105 -247 -116 -64 callsubr
          98 -90 247 90 102 -51 callsubr
          185 111 callsubr
        </CharString>
        <CharString name="dotaccent">
          -7 238 515 rmoveto
          239 141 -239 hlineto
          endchar
        </CharString>
        <CharString name="dotlessi">
          -360 55 485 rmoveto
          -485 240 485 vlineto
          endchar
        </CharString>
        <CharString name="dvDDH_DDHA">
          77 693 101 callgsubr
          116 59 -829 -59 449 -78 -299 vlineto
          -103 callgsubr
          -235 -76 callsubr
          -217 -106 callsubr
          539 175 callgsubr
          222 -106 callgsubr
          316 175 callgsubr
          224 68 callsubr
        </CharString>
        <CharString name="dvDD_GA">
          119 callgsubr
          -52 21 -22 51 -1 147 callgsubr
          271 vlineto
          41 4 18 23 47 vvcurveto
          227 callgsubr
        </CharString>
        <CharString name="dvMatraI.a33">
          -69 callgsubr
          1786 -94 callsubr
          -89 264 106 -89 callsubr
          -2232 -87 callsubr
        </CharString>
        <CharString name="dvMatraI.a34">
          -69 callgsubr
          1834 -94 callsubr
          -89 264 106 -89 callsubr
          -2280 -87 callsubr
        </CharString>
        <CharString name="dvMatraI.a35">
          -69 callgsubr
          1884 -94 callsubr
          -89 264 106 -89 callsubr
          -2330 -87 callsubr
        </CharString>
        <CharString name="dvMatraI.a36">
          -69 callgsubr
          1932 -94 callsubr
          -89 264 106 -89 callsubr
          -2378 -87 callsubr
        </CharString>
        <CharString name="dvMatraI.a37">
          -69 callgsubr
          1981 -94 callsubr
          -89 264 106 -89 callsubr
          -2427 -87 callsubr
        </CharString>
        <CharString name="dvMatraI.a38">
          -69 callgsubr
          2030 -94 callsubr
          -89 264 106 -89 callsubr
          -2476 -87 callsubr
        </CharString>
        <CharString name="dvMatraI.a39">
          -69 callgsubr
          2079 -94 callsubr
          -89 264 106 -89 callsubr
          -2525 -87 callsubr
        </CharString>
        <CharString name="dvMatraI.a40">
          -69 callgsubr
          2128 -94 callsubr
          -89 264 106 -89 callsubr
          -2574 -87 callsubr
        </CharString>
        <CharString name="dvMatraI.a41">
          -69 callgsubr
          2176 -94 callsubr
          -89 264 106 -89 callsubr
          -2622 -87 callsubr
        </CharString>
        <CharString name="dvMatraI.a42">
          -69 callgsubr
          2225 -94 callsubr
          -89 264 106 -89 callsubr
          -2671 -87 callsubr
        </CharString>
        <CharString name="dvMatraI.a43">
          -69 callgsubr
          2274 -94 callsubr
          -89 264 106 -89 callsubr
          -2720 -87 callsubr
        </CharString>
        <CharString name="dvMatraI.a44">
          -69 callgsubr
          2323 -94 callsubr
          -89 264 106 -89 callsubr
          -2769 -87 callsubr
        </CharString>
        <CharString name="dvMatraI.a45">
          -69 callgsubr
          2371 -94 callsubr
          -89 264 106 -89 callsubr
          -2817 -87 callsubr
        </CharString>
        <CharString name="dvMatraI.a46">
          -69 callgsubr
          2420 -94 callsubr
          -89 264 106 -89 callsubr
          -2866 -87 callsubr
        </CharString>
        <CharString name="dvMatraI.a47">
          -69 callgsubr
          2469 -94 callsubr
          -89 264 106 -89 callsubr
          -2915 -87 callsubr
        </CharString>
        <CharString name="dvMatraI.a48">
          -69 callgsubr
          2518 -94 callsubr
          -89 264 106 -89 callsubr
          -2964 -87 callsubr
        </CharString>
        <CharString name="dvMatraI.a49">
          -69 callgsubr
          2566 -94 callsubr
          -89 264 106 -89 callsubr
          -3012 -87 callsubr
        </CharString>
        <CharString name="dvMatraI.a50">
          3265 671 rmoveto
          106 -89 callsubr
          -3060 -71 callsubr
          -155 -75 251 callgsubr
          256 callgsubr
          2614 -94 callsubr
          -89 vlineto
          endchar
        </CharString>
        <CharString name="dvNG_GA">
          198 742 312 callsubr
          -762 206 rmoveto
          -59 430 -78 -283 vlineto
          -103 callgsubr
          -84 -106 callsubr
          293 hlineto
          -59 callgsubr
          -124 220 callsubr
          -67 143 callsubr
          -264 -92 vlineto
          -52 21 -22 50 -1 147 callgsubr
          271 vlineto
          41 4 18 23 47 vvcurveto
          160 -89 callsubr
          -293 -60 callsubr
          48 -88 callgsubr
          324 137 256 59 hlineto
          endchar
        </CharString>
        <CharString name="dvNG_MA">
          419 803 292 rmoveto
          130 -136 -130 vlineto
          162 -339 rmoveto
          -180 275 hlineto
          -86 callgsubr
          -231 -60 callsubr
          55 -88 callgsubr
          306 137 180 hlineto
          322 59 rmoveto
          -1171 -59 412 -78 -272 -71 callsubr
          -91 -106 callsubr
          238 hlineto
          -59 callgsubr
          -117 220 callsubr
          -12 -97 callsubr
          68 -264 -85 -106 callsubr
          284 -202 242 96 180 -164 247 833 75 hlineto
          endchar
        </CharString>
        <CharString name="dvNY_CA">
          833 1565 6 callgsubr
          -1585 -59 1246 146 callsubr
          -436 -59 103 132 callgsubr
          -67 -144 92 vlineto
          24 callgsubr
          144 -106 -106 callsubr
          332 -102 callsubr
        </CharString>
        <CharString name="dvSHA_MatraVocalicR">
          334 292 271 callgsubr
          -171 vlineto
          -44 -38 rlineto
          -21 -60 callsubr
          699 -320 rmoveto
          529 75 59 -339 -302 -113 vlineto
          16 7 7 17 29 vvcurveto
          174 60 callgsubr
          -211 -106 callsubr
          154 hlineto
          -216 -183 rlineto
          285 hlineto
          216 183 rlineto
          167 -168 -80 -71 callsubr
          -121 -106 callsubr
          373 59 -140 -97 callsubr
          87 68 callsubr
        </CharString>
        <CharString name="dvSH_VA.aSimp">
          738 128 622 rmoveto
          -93 callgsubr
          873 hmoveto
          -748 -59 409 -45 callgsubr
          50 callsubr
        </CharString>
        <CharString name="dvTTH_TTHA">
          90 500 -178 rmoveto
          281 callsubr
          158 -106 callgsubr
          130 -94 callsubr
          251 vmoveto
          281 callsubr
          162 -106 callgsubr
          130 -94 callsubr
          322 170 rmoveto
          59 -842 -59 292 -78 -149 88 callsubr
          149 -67 -149 -71 callsubr
          -192 -106 callsubr
          556 -102 callgsubr
          192 -89 callsubr
          -149 67 149 -102 callgsubr
          196 -89 callsubr
          -149 78 hlineto
          endchar
        </CharString>
        <CharString name="dvTT_GA">
          59 701 273 callgsubr
          -811 -59 457 -78 -307 vlineto
          -103 callgsubr
          -335 vlineto
          -51 20 -22 48 -2 147 callgsubr
          270 -72 callsubr
          179 -264 -162 -101 callsubr
          -80 -91 callsubr
          endchar
        </CharString>
        <CharString name="dvT_KH_NA">
          1751 1802 -2 callgsubr
          -2503 -59 800 -260 hlineto
          256 callsubr
          -598 -57 callgsubr
          111 -351 hlineto
          -107 callsubr
          591 59 -368 -97 callsubr
          119 247 vlineto
          122 callgsubr
          1104 -78 -636 66 callsubr
          13 11 310 callsubr
          -32 7 23 -14 42 hhcurveto
          20 callsubr
          88 -426 -36 callsubr
        </CharString>
        <CharString name="dvT_S_NA">
          1519 1912 485 rmoveto
          -636 225 callgsubr
          840 hlineto
          21 callsubr
          -2271 -59 813 83 callgsubr
          -608 -57 callgsubr
          121 -40 callsubr
          473 -127 99 callsubr
        </CharString>
        <CharString name="e">
          -30 290 278 -54 callgsubr
        </CharString>
        <CharString name="eacute">
          -48 609 687 30 callsubr
          -149 -254 -54 callgsubr
        </CharString>
        <CharString name="ecaron">
          -48 445 532 -11 callgsubr
          54 -254 -54 callgsubr
        </CharString>
        <CharString name="ecircumflex">
          -48 338 616 rmoveto
          47 callgsubr
          -188 -163 rlineto
          222 hlineto
          18 -254 -54 callgsubr
        </CharString>
        <CharString name="edieresis">
          -48 302 263 callgsubr
          319 141 100 callgsubr
          -500 -47 5 callgsubr
          429 -51 callsubr
          85 -232 -74 58 callgsubr
          129 347 139 callgsubr
          -268 -207 19 callsubr
          endchar
        </CharString>
        <CharString name="edotaccent">
          -48 457 263 callgsubr
          -175 -254 -54 callgsubr
        </CharString>
        <CharString name="egrave">
          -48 431 532 124 callgsubr
          37 -254 -54 callgsubr
        </CharString>
        <CharString name="eight">
          -9 129 622 303 callsubr
          -149 vlineto
          -51 24 -26 48 -2 vhcurveto
          -48 -3 -24 -26 -50 vvcurveto
          -157 -64 callsubr
          445 -51 callsubr
          157 238 callgsubr
          149 -46 callgsubr
          -269 -370 rmoveto
          26 5 5 26 vhcurveto
          32 -54 callsubr
          -162 -26 callsubr
          -32 -59 callsubr
          94 283 73 callsubr
          -32 -59 callsubr
          159 -48 callgsubr
          32 -54 callsubr
          endchar
        </CharString>
        <CharString name="ellipsis">
          348 56 hmoveto
          172 callgsubr
          362 -149 rmoveto
          172 callgsubr
          352 -149 rmoveto
          172 callgsubr
          endchar
        </CharString>
        <CharString name="emacron">
          -48 612 600 240 callgsubr
          -330 -264 -54 callgsubr
        </CharString>
        <CharString name="emdash">
          344 65 262 rmoveto
          915 59 -915 hlineto
          endchar
        </CharString>
        <CharString name="endash">
          144 65 262 rmoveto
          577 59 -577 hlineto
          endchar
        </CharString>
        <CharString name="eogonek">
          -48 282 244 callsubr
          -276 207 5 callgsubr
          99 180 callsubr
          90 179 callgsubr
        </CharString>
        <CharString name="equal">
          49 50 350 rmoveto
          274 callsubr
          -363 vmoveto
          274 callsubr
          endchar
        </CharString>
        <CharString name="eth">
          -15 404 219 callgsubr
          -60 -59 callsubr
          192 -48 callgsubr
          91 hlineto
          -4 0 -5 -4 vvcurveto
          211 228 rmoveto
          66 vlineto
          -113 -23 -29 24 -28 17 -19 10 rlinecurve
          -332 hlineto
          35 -15 74 -33 67 -51 -95 -20 rcurveline
          -66 vlineto
          155 32 27 -28 22 -33 12 -36 rlinecurve
          -270 -2 callsubr
          -214 -64 callsubr
          444 -51 callsubr
          218 vlineto
          93 -39 73 -46 53 vhcurveto
          endchar
        </CharString>
        <CharString name="exclam">
          -318 58 6 callgsubr
          43 -406 rlineto
          193 hlineto
          42 406 rlineto
          -266 -622 rmoveto
          172 callgsubr
          endchar
        </CharString>
        <CharString name="exclamdown">
          -293 113 268 rmoveto
          -43 -406 rlineto
          278 hlineto
          -42 406 rlineto
          -224 216 313 callgsubr
        </CharString>
        <CharString name="f">
          -275 432 610 rmoveto
          59 -271 vlineto
          -39 callsubr
          -105 -72 -59 72 300 callsubr
          110 59 -110 94 -48 callgsubr
          endchar
        </CharString>
        <CharString name="fi">
          23 680 485 rmoveto
          -358 94 hlineto
          26 5 5 26 vhcurveto
          39 59 -231 242 callsubr
          vlineto
          -244 669 rmoveto
          -126 248 126 vlineto
          endchar
        </CharString>
        <CharString name="five">
          -18 326 379 rmoveto
          184 314 59 -578 -302 307 vlineto
          26 5 -5 -26 hvcurveto
          -199 -26 callsubr
          -34 -59 callsubr
          128 -254 -139 -64 callsubr
          446 -51 callsubr
          221 111 callsubr
        </CharString>
        <CharString name="fl">
          28 440 669 rmoveto
          -184 -118 94 -48 callgsubr
          44 59 -236 242 callsubr
          669 vlineto
          endchar
        </CharString>
        <CharString name="florin">
          -92 584 589 rmoveto
          59 -143 vlineto
          -151 -41 -48 -72 -15 hvcurveto
          -9 -43 rlineto
          -105 -59 92 hlineto
          -99 -460 rlineto
          -36 -8 -17 -12 -35 hhcurveto
          -42 -59 143 hlineto
          151 40 48 72 16 hvcurveto
          96 447 rlineto
          105 59 -92 hlineto
          12 56 rlineto
          36 8 17 12 35 hhcurveto
          endchar
        </CharString>
        <CharString name="four">
          19 721 160 rmoveto
          -87 168 -240 -168 -130 hlineto
          274 462 rlineto
          -258 hlineto
          -260 -420 rlineto
          -101 374 -101 240 101 87 vlineto
          endchar
        </CharString>
        <CharString name="fraction">
          -168 437 6 callgsubr
          -429 -622 rlineto
          176 hlineto
          432 622 rlineto
          endchar
        </CharString>
        <CharString name="g">
          -30 321 59 -70 callsubr
          -77 -26 callsubr
          -273 -59 138 callsubr
          547 vlineto
          endchar
        </CharString>
        <CharString name="gbreve">
          -37 535 532 72 callgsubr
          175 75 callgsubr
        </CharString>
        <CharString name="germandbls">
          243 369 166 rmoveto
          -87 -64 callsubr
          411 -51 callsubr
          133 -46 callgsubr
          -217 -59 callsubr
          42 -48 callgsubr
          141 -51 callsubr
          69 -46 callgsubr
          -641 -2 callsubr
          -543 247 532 -48 callgsubr
          229 -54 callsubr
          -47 -26 callsubr
          -115 -2 callsubr
          -64 -64 callsubr
          212 -54 callsubr
          -110 -26 callsubr
          -27 -59 callsubr
          5 callsubr
        </CharString>
        <CharString name="grave">
          -7 384 661 160 callsubr
        </CharString>
        <CharString name="greater">
          29 514 313 rmoveto
          -484 -73 rlineto
          -151 vlineto
          681 155 rlineto
          142 vlineto
          -681 144 rlineto
          -149 vlineto
          endchar
        </CharString>
        <CharString name="greaterequal">
          29 45 99 rmoveto
          661 114 -661 hlineto
          494 167 rmoveto
          -494 -30 rlineto
          -124 vlineto
          661 83 rlineto
          145 vlineto
          -661 76 rlineto
          -122 vlineto
          endchar
        </CharString>
        <CharString name="guillemotleft">
          80 507 93 170 callgsubr
          -194 -148 170 callgsubr
          endchar
        </CharString>
        <CharString name="guillemotright">
          65 415 241 170 callsubr
          486 148 170 callsubr
          endchar
        </CharString>
        <CharString name="guilsinglleft">
          -290 167 93 170 callgsubr
          endchar
        </CharString>
        <CharString name="guilsinglright">
          -290 415 241 170 callsubr
          endchar
        </CharString>
        <CharString name="h">
          -30 353 485 rmoveto
          -33 -16 -9 -17 -9 hvcurveto
          210 -240 -669 240 397 vlineto
          21 12 -19 callsubr
          28 -54 callsubr
          -395 240 406 111 callsubr
        </CharString>
        <CharString name="hungarumlaut">
          -7 450 661 rmoveto
          192 callsubr
          -475 hmoveto
          193 callgsubr
          endchar
        </CharString>
        <CharString name="hyphen">
          281 callgsubr
        </CharString>
        <CharString name="i">
          -362 295 hmoveto
          485 270 callgsubr
          vlineto
          -4 543 313 callsubr
        </CharString>
        <CharString name="iacute">
          245 callsubr
          33 532 84 callsubr
          endchar
        </CharString>
        <CharString name="icircumflex">
          297 callsubr
          -174 532 rmoveto
          222 hlineto
          74 84 47 callgsubr
          endchar
        </CharString>
        <CharString name="idieresis">
          297 callsubr
          157 674 141 callgsubr
        </CharString>
        <CharString name="igrave">
          245 callsubr
          71 687 160 callsubr
        </CharString>
        <CharString name="imacron">
          245 callsubr
          -154 542 241 callsubr
          endchar
        </CharString>
        <CharString name="infinity">
          269 281 159 rmoveto
          92 31 10 61 51 hvcurveto
          23 27 25 -26 rlineto
          -57 54 33 -15 93 hhcurveto
          174 -51 callsubr
          198 -46 callgsubr
          -196 hlineto
          -87 -21 -19 -61 -52 hvcurveto
          -26 -31 -40 42 rlineto
          42 -41 -24 27 -75 hhcurveto
          -171 -2 callsubr
          -198 -64 callsubr
          472 239 rmoveto
          26 22 15 12 33 hhcurveto
          57 hlineto
          37 4 -9 -22 hvcurveto
          -136 vlineto
          -24 -4 -7 -37 vhcurveto
          -52 hlineto
          -31 -22 19 19 -19 hvcurveto
          -58 57 rlineto
          -173 -54 rmoveto
          -28 -24 -21 -13 -39 hhcurveto
          -26 hlineto
          -37 -4 7 24 hvcurveto
          136 vlineto
          22 4 9 37 vhcurveto
          24 hlineto
          29 16 -17 -19 18 hvcurveto
          66 -71 rlineto
          endchar
        </CharString>
        <CharString name="integral">
          -150 402 579 rmoveto
          26 5 5 26 vhcurveto
          73 59 -277 -2 callsubr
          -641 -26 callsubr
          -73 -59 277 -51 callsubr
          endchar
        </CharString>
        <CharString name="iogonek">
          -360 300 669 rmoveto
          -248 -126 248 hlineto
          -135 -750 249 callsubr
          -516 -10 hlineto
          80 callgsubr
        </CharString>
        <CharString name="itfLogo">
          902 1299 220 rmoveto
          308 callgsubr
          38 vmoveto
          308 callgsubr
          -232 262 callgsubr
          -232 -182 rmoveto
          193 182 -193 hlineto
          -231 262 callgsubr
          -232 -182 rmoveto
          308 callgsubr
          -231 262 callgsubr
          endchar
        </CharString>
        <CharString name="itfStar">
          -42 660 441 rmoveto
          -258 -8 -66 243 -69 -243 -257 8 218 -139 -94 -242 202 165 201 -165 -92 242 rlineto
          endchar
        </CharString>
        <CharString name="j">
          -362 55 -51 73 callsubr
          -50 -59 242 -51 callsubr
          547 -240 vlineto
          -4 58 313 callsubr
        </CharString>
        <CharString name="k">
          -29 55 669 184 callgsubr
        </CharString>
        <CharString name="l">
          -352 300 hmoveto
          307 callsubr
          endchar
        </CharString>
        <CharString name="lacute">
          -360 89 716 84 callsubr
          71 -871 rmoveto
          307 callsubr
          endchar
        </CharString>
        <CharString name="lcaron">
          -289 56 669 rmoveto
          -669 240 669 vlineto
          56 304 callsubr
          endchar
        </CharString>
        <CharString name="less">
          29 711 381 rmoveto
          149 vlineto
          -681 -144 rlineto
          -142 vlineto
          681 -155 rlineto
          151 vlineto
          -484 73 rlineto
          endchar
        </CharString>
        <CharString name="lessequal">
          29 696 213 rmoveto
          -661 -114 661 hlineto
          309 vmoveto
          122 vlineto
          -661 -76 rlineto
          -145 vlineto
          661 -83 rlineto
          124 vlineto
          -494 30 rlineto
          endchar
        </CharString>
        <CharString name="logicalnot">
          87 715 404 rmoveto
          -645 -170 513 -136 132 hlineto
          endchar
        </CharString>
        <CharString name="lozenge">
          114 786 313 rmoveto
          -255 309 rlineto
          -244 hlineto
          -247 -309 247 -313 rlineto
          244 hlineto
          10 313 rmoveto
          -133 -182 -122 182 122 178 rlineto
          endchar
        </CharString>
        <CharString name="lslash">
          -345 451 472 rmoveto
          -148 -49 rlineto
          246 -240 -326 vlineto
          -139 -46 rlineto
          -71 vlineto
          139 46 rlineto
          -272 240 351 vlineto
          148 49 rlineto
          endchar
        </CharString>
        <CharString name="m">
          307 695 485 rmoveto
          -40 -19 -17 -29 -8 hvcurveto
          31 -10 -24 15 -41 hhcurveto
          -200 hlineto
          -33 -16 -9 -17 -9 hvcurveto
          26 302 callgsubr
          397 vlineto
          21 12 -19 callsubr
          28 -54 callsubr
          -395 240 387 vlineto
          21 10 18 29 vhcurveto
          27 -54 callsubr
          -395 240 406 111 callsubr
        </CharString>
        <CharString name="macron">
          -7 78 550 241 callsubr
          endchar
        </CharString>
        <CharString name="minus">
          227 31 239 rmoveto
          274 callsubr
          endchar
        </CharString>
        <CharString name="multiply">
          -32 645 433 rmoveto
          -100 100 -184 -137 -183 137 -100 -101 166 -123 -166 -123 99 -100 184 137 185 -137 99 99 -167 124 rlineto
          endchar
        </CharString>
        <CharString name="n">
          -30 353 485 13 callsubr
        </CharString>
        <CharString name="nacute">
          -30 617 687 30 callsubr
          -85 -47 13 callsubr
        </CharString>
        <CharString name="ncaron">
          -30 446 531 -11 callgsubr
          125 -46 13 callsubr
        </CharString>
        <CharString name="nine">
          -5 335 318 173 callgsubr
          183 -48 callgsubr
          31 -54 callsubr
          -214 vlineto
          -268 304 303 callsubr
          -205 -64 callsubr
          268 -169 hlineto
          -44 callsubr
          -19 -59 callsubr
          100 -254 -111 -64 callsubr
          432 -51 callsubr
          464 111 callsubr
        </CharString>
        <CharString name="notequal">
          39 706 350 rmoveto
          141 -131 vlineto
          41 52 rlineto
          -114 hlineto
          -41 -52 rlineto
          -416 -141 305 hlineto
          -63 -81 rlineto
          -242 -141 131 hlineto
          -41 -52 rlineto
          114 hlineto
          41 52 rlineto
          416 141 -305 hlineto
          63 81 rlineto
          endchar
        </CharString>
        <CharString name="ntilde">
          -30 254 586 rmoveto
          12 6 8 14 vhcurveto
          -8 callsubr
          vlineto
          100 -46 13 callsubr
        </CharString>
        <CharString name="numbersign">
          240 525 244 rmoveto
          -141 hlineto
          43 133 rlineto
          141 hlineto
          344 hmoveto
          107 -103 vlineto
          45 138 rlineto
          -206 hlineto
          -45 -138 rlineto
          -141 hlineto
          45 138 rlineto
          -204 hlineto
          -45 -138 rlineto
          -151 -107 115 hlineto
          -44 -133 rlineto
          -138 -106 103 hlineto
          -45 -138 rlineto
          206 hlineto
          45 138 rlineto
          141 hlineto
          -45 -138 rlineto
          204 hlineto
          45 138 rlineto
          151 106 -116 hlineto
          44 133 rlineto
          endchar
        </CharString>
        <CharString name="o">
          -32 390 90 -31 callsubr
        </CharString>
        <CharString name="oacute">
          -34 620 686 30 callsubr
          -53 -441 -31 callsubr
        </CharString>
        <CharString name="ocircumflex">
          -34 341 617 rmoveto
          47 callgsubr
          -188 -163 rlineto
          222 hlineto
          122 -443 -31 callsubr
        </CharString>
        <CharString name="odieresis">
          -34 128 485 5 callgsubr
          422 279 callgsubr
          -161 -90 rmoveto
          -305 vlineto
          22 callgsubr
          -326 278 195 callgsubr
          80 hmoveto
          171 callsubr
        </CharString>
        <CharString name="oe">
          305 630 244 callsubr
          -355 -188 rmoveto
          22 callgsubr
          228 90 rmoveto
          -97 -10 -10 -26 -8 hvcurveto
          26 -9 -25 10 -96 hhcurveto
          -244 151 callsubr
          242 285 callgsubr
          282 179 callgsubr
        </CharString>
        <CharString name="ogonek">
          -7 372 -207 97 callgsubr
          105 -240 -46 -10 hlineto
          80 callgsubr
        </CharString>
        <CharString name="ograve">
          -34 435 531 124 callgsubr
          140 -441 -31 callsubr
        </CharString>
        <CharString name="ohungarumlaut">
          -34 128 485 5 callgsubr
          422 279 callgsubr
          -161 -90 rmoveto
          -305 vlineto
          22 callgsubr
          -117 292 rmoveto
          193 callgsubr
          59 hmoveto
          192 callsubr
          endchar
        </CharString>
        <CharString name="omacron">
          -34 613 600 240 callgsubr
          -224 -452 -31 callsubr
        </CharString>
        <CharString name="one">
          -256 401 272 callgsubr
        </CharString>
        <CharString name="onesuperior">
          -405 258 6 callgsubr
          -248 -42 78 -300 170 hlineto
          endchar
        </CharString>
        <CharString name="ordfeminine">
          -237 227 321 rmoveto
          -19 -3 4 18 hvcurveto
          216 vlineto
          18 3 3 19 vhcurveto
          18 hlineto
          19 8 -5 -15 hvcurveto
          -218 vlineto
          -14 -8 -7 -19 vhcurveto
          27 301 rmoveto
          -18 vlineto
          11 -6 -11 7 -23 hhcurveto
          -141 hlineto
          -38 -18 -18 -38 hvcurveto
          -231 vlineto
          -37 18 -18 38 vhcurveto
          141 hlineto
          23 11 6 12 6 hvcurveto
          -18 170 342 vlineto
          endchar
        </CharString>
        <CharString name="ordmasculine">
          -245 415 579 rmoveto
          29 -14 14 -29 vhcurveto
          -294 hlineto
          -29 -14 -14 -29 hvcurveto
          -256 vlineto
          -29 14 -14 29 vhcurveto
          294 hlineto
          29 14 14 29 hvcurveto
          -160 16 rmoveto
          -14 -2 -3 -15 vhcurveto
          -26 hlineto
          -14 -3 3 14 hvcurveto
          224 vlineto
          14 3 3 14 vhcurveto
          26 299 callsubr
          endchar
        </CharString>
        <CharString name="oslash">
          -34 310 59 173 callgsubr
          35 vlineto
          120 124 rlineto
          -159 -26 callsubr
          -89 336 rmoveto
          26 5 5 26 vhcurveto
          58 -54 callsubr
          -38 vlineto
          -120 -124 rlineto
          385 290 rmoveto
          -104 hlineto
          -37 -38 rlineto
          -395 -2 callsubr
          -327 vlineto
          -28 7 -20 14 -13 vhcurveto
          -55 -57 rlineto
          105 hlineto
          38 39 rlineto
          392 -51 callsubr
          327 vlineto
          27 -7 20 -13 13 vhcurveto
          endchar
        </CharString>
        <CharString name="otilde">
          -34 250 587 rmoveto
          12 6 8 14 vhcurveto
          -8 callsubr
          vlineto
          139 -442 -31 callsubr
        </CharString>
        <CharString name="p">
          -30 392 90 178 callsubr
          40 -235 -625 240 167 216 callgsubr
          326 111 callsubr
        </CharString>
        <CharString name="paragraph">
          90 467 6 callgsubr
          -350 -2 callsubr
          -261 -64 callsubr
          139 -344 211 hlineto
          75 763 rmoveto
          -763 211 763 vlineto
          endchar
        </CharString>
        <CharString name="parenleft">
          -318 50 88 rmoveto
          -194 136 -114 225 vhcurveto
          44 59 -13 hlineto
          -104 -34 86 115 hvcurveto
          419 vlineto
          115 34 86 104 vhcurveto
          13 59 -44 hlineto
          -225 -136 -114 -194 hvcurveto
          endchar
        </CharString>
        <CharString name="parenright">
          -318 344 411 rmoveto
          194 -136 114 -225 vhcurveto
          -44 -59 13 hlineto
          104 34 -86 -115 hvcurveto
          -419 vlineto
          -115 -34 -86 -104 vhcurveto
          -13 -59 44 hlineto
          225 136 114 194 hvcurveto
          endchar
        </CharString>
        <CharString name="percent">
          552 1234 325 -17 callgsubr
          -274 313 rmoveto
          -469 -622 rlineto
          176 hlineto
          472 622 rlineto
          -474 -48 -17 callgsubr
          endchar
        </CharString>
        <CharString name="period">
          -348 55 hmoveto
          172 callgsubr
          endchar
        </CharString>
        <CharString name="periodcentered">
          -348 62 237 rmoveto
          172 callgsubr
          endchar
        </CharString>
        <CharString name="perthousand">
          1079 1238 325 -17 callgsubr
          -274 313 rmoveto
          -469 -622 rlineto
          176 hlineto
          472 622 rlineto
          -474 -48 -17 callgsubr
          1447 -233 -17 callgsubr
          endchar
        </CharString>
        <CharString name="pi">
          110 802 485 rmoveto
          -783 -59 95 -336 hlineto
          -44 callsubr
          -51 -59 243 -51 callsubr
          347 113 300 callsubr
          95 vlineto
          endchar
        </CharString>
        <CharString name="plus">
          49 711 380 rmoveto
          -215 140 -230 -140 -216 -141 216 -140 230 140 215 hlineto
          endchar
        </CharString>
        <CharString name="plusminus">
          40 35 135 rmoveto
          660 101 -660 hlineto
          435 222 rmoveto
          62 -210 -62 -226 -121 226 -62 210 62 225 121 vlineto
          endchar
        </CharString>
        <CharString name="product">
          48 700 6 callgsubr
          -614 -532 hlineto
          -44 callsubr
          -51 -59 243 -51 callsubr
          484 133 -563 240 563 1 vlineto
          endchar
        </CharString>
        <CharString name="q">
          -30 321 59 173 callgsubr
          304 -48 callgsubr
          28 hlineto
          26 12 -8 -21 hvcurveto
          -308 vlineto
          -20 -12 -83 callgsubr
          43 425 rmoveto
          -40 vlineto
          25 -6 -16 15 -41 hhcurveto
          -200 -2 callsubr
          -326 -64 callsubr
          200 hlineto
          33 16 9 17 9 hvcurveto
          -167 240 625 vlineto
          endchar
        </CharString>
        <CharString name="question">
          -67 182 hmoveto
          172 callgsubr
          -83 473 303 callsubr
          -120 244 109 -48 callgsubr
          55 -54 callsubr
          -147 -26 callsubr
          -159 hlineto
          19 -138 rlineto
          204 hlineto
          11 69 rlineto
          121 -51 callsubr
          179 111 callsubr
        </CharString>
        <CharString name="questiondown">
          -51 487 484 rmoveto
          -254 -149 254 hlineto
          -82 -274 rmoveto
          -109 -26 callsubr
          -55 -59 callsubr
          147 -48 callgsubr
          159 hlineto
          -19 138 rlineto
          -204 hlineto
          -10 -69 rlineto
          -122 -2 callsubr
          -179 125 callgsubr
          120 vlineto
          endchar
        </CharString>
        <CharString name="quotedbl">
          -112 50 6 callgsubr
          308 callsubr
          70 hmoveto
          308 callsubr
          endchar
        </CharString>
        <CharString name="quotedblbase">
          -58 365 -121 148 callsubr
          -309 -290 148 callsubr
          endchar
        </CharString>
        <CharString name="quotedblleft">
          -58 310 622 246 callsubr
          309 290 246 callsubr
          endchar
        </CharString>
        <CharString name="quotedblright">
          -58 365 332 148 callsubr
          -309 -290 148 callsubr
          endchar
        </CharString>
        <CharString name="quoteleft">
          -354 310 622 246 callsubr
          endchar
        </CharString>
        <CharString name="quoteright">
          -354 56 332 148 callsubr
          endchar
        </CharString>
        <CharString name="quotesinglbase">
          -357 56 -121 148 callsubr
          endchar
        </CharString>
        <CharString name="quotesingle">
          -397 50 6 callgsubr
          308 callsubr
          endchar
        </CharString>
        <CharString name="r">
          -243 423 488 214 callsubr
        </CharString>
        <CharString name="racute">
          -240 540 687 30 callsubr
          -66 210 callsubr
        </CharString>
        <CharString name="rcaron">
          -240 368 532 -11 callgsubr
          145 210 callsubr
        </CharString>
        <CharString name="registered">
          -38 632 545 rmoveto
          103 -44 64 -169 vhcurveto
          -163 hlineto
          -169 -44 -64 -103 hvcurveto
          -31 vlineto
          -103 44 -64 169 vhcurveto
          163 hlineto
          169 44 64 103 hvcurveto
          -348 -132 rmoveto
          -90 -34 32 90 hvcurveto
          51 vlineto
          91 34 31 90 vhcurveto
          107 hlineto
          90 35 -31 -91 hvcurveto
          -51 vlineto
          -90 -35 -32 -90 vhcurveto
          -154 240 rmoveto
          -183 85 64 4 vlineto
          34 -64 rlineto
          89 hlineto
          -42 66 rlineto
          10 hlineto
          16 8 8 15 hvcurveto
          70 vlineto
          16 -8 8 -16 vhcurveto
          -61 -91 rmoveto
          -7 -1 -2 -8 vhcurveto
          -25 82 25 hlineto
          8 1 -1 -8 hvcurveto
          endchar
        </CharString>
        <CharString name="ring">
          -7 557 604 121 callgsubr
          endchar
        </CharString>
        <CharString name="s">
          -79 353 67 callsubr
          endchar
        </CharString>
        <CharString name="sacute">
          -85 231 532 84 callsubr
          -15 -597 -46 callsubr
          endchar
        </CharString>
        <CharString name="scaron">
          -85 205 532 133 callsubr
          335 -605 -46 callsubr
          endchar
        </CharString>
        <CharString name="section">
          305 776 183 rmoveto
          23 2 40 14 54 vvcurveto
          107 -46 callgsubr
          -211 -59 callsubr
          88 -48 callgsubr
          23 -54 callsubr
          -62 247 73 -46 callgsubr
          -421 -2 callsubr
          -110 vlineto
          -53 37 -14 23 -2 vhcurveto
          -24 -3 -38 -24 -53 vvcurveto
          -97 -64 callsubr
          211 -54 callsubr
          -88 -26 callsubr
          -23 -59 callsubr
          62 -247 -73 -64 callsubr
          421 188 callsubr
          vlineto
          52 -39 24 -22 3 vhcurveto
          -215 197 rmoveto
          26 5 -5 -26 hvcurveto
          -125 -26 callsubr
          -14 -59 callsubr
          125 -48 callgsubr
          endchar
        </CharString>
        <CharString name="semicolon">
          -353 55 336 rmoveto
          172 callgsubr
          -626 vmoveto
          84 hlineto
          170 213 rlineto
          97 -254 vlineto
          endchar
        </CharString>
        <CharString name="seven">
          -113 589 6 callgsubr
          -574 -59 331 hlineto
          -287 -563 rlineto
          269 hlineto
          261 530 rlineto
          endchar
        </CharString>
        <CharString name="six">
          -5 403 219 callgsubr
          -31 -59 callsubr
          214 62 vlineto
          26 5 -5 -26 hvcurveto
          -93 90 rmoveto
          169 -48 callgsubr
          17 -54 callsubr
          -100 254 111 -46 callgsubr
          -430 hlineto
          4 callsubr
          444 -51 callsubr
          205 111 callsubr
        </CharString>
        <CharString name="slash">
          243 callgsubr
        </CharString>
        <CharString name="space">
          -438 endchar
        </CharString>
        <CharString name="sterling">
          1 296 121 rmoveto
          43 12 5 53 55 vvcurveto
          28 202 59 -202 204 -48 callgsubr
          27 -54 callsubr
          -120 254 131 -46 callgsubr
          -439 -2 callsubr
          -215 -62 -59 62 -37 vlineto
          -64 -1 -62 -61 -16 vhcurveto
          -90 664 121 vlineto
          endchar
        </CharString>
        <CharString name="t">
          -282 411 426 183 callsubr
        </CharString>
        <CharString name="tcaron">
          -285 325 611 rmoveto
          -240 -126 -78 -59 78 -347 hlineto
          -53 26 -26 53 vhcurveto
          248 59 -56 -59 callsubr
          336 88 59 -88 vlineto
          60 253 rmoveto
          -188 56 vlineto
          107 114 rlineto
          74 vlineto
          endchar
        </CharString>
        <CharString name="thorn">
          -30 392 100 178 callsubr
          215 -235 -810 240 177 216 callgsubr
          326 111 callsubr
        </CharString>
        <CharString name="three">
          -5 295 532 rmoveto
          26 5 5 26 vhcurveto
          46 -54 callsubr
          -156 -26 callsubr
          -89 -60 89 -54 callsubr
          -164 -26 callsubr
          -46 -59 callsubr
          112 -255 -123 -64 callsubr
          459 -51 callsubr
          161 238 callgsubr
          145 -46 callgsubr
          -459 -2 callsubr
          -124 255 vlineto
          endchar
        </CharString>
        <CharString name="threesuperior">
          -313 180 563 rmoveto
          14 3 3 14 vhcurveto
          25 299 callsubr
          -72 vlineto
          -15 -2 -2 -15 vhcurveto
          -48 -42 48 299 callsubr
          -76 vlineto
          -14 -2 -3 -15 vhcurveto
          -25 hlineto
          -14 -3 3 14 hvcurveto
          52 -150 -68 vlineto
          -29 14 -14 29 vhcurveto
          273 hlineto
          29 14 14 29 hvcurveto
          89 vlineto
          28 -13 14 -26 1 vhcurveto
          26 1 13 15 28 vvcurveto
          80 vlineto
          29 -14 14 -29 vhcurveto
          -273 hlineto
          -29 -14 -14 -29 hvcurveto
          -69 150 vlineto
          endchar
        </CharString>
        <CharString name="tilde">
          -7 285 591 rmoveto
          -8 callsubr
          55 vlineto
          12 6 8 14 vhcurveto
          endchar
        </CharString>
        <CharString name="trademark">
          269 28 554 rmoveto
          87 -289 168 289 88 68 -343 hlineto
          742 hmoveto
          -93 -203 -92 203 rlineto
          -170 -357 156 204 hlineto
          55 -135 rlineto
          102 hlineto
          56 135 rlineto
          -204 156 357 vlineto
          endchar
        </CharString>
        <CharString name="two">
          -26 300 532 rmoveto
          26 5 5 26 vhcurveto
          39 -54 callsubr
          -102 vlineto
          -36 -9 -16 -38 -34 vhcurveto
          -314 -284 rlineto
          -60 616 59 -291 vlineto
          222 198 rlineto
          50 44 16 32 98 vvcurveto
          112 -46 callgsubr
          -452 -2 callsubr
          -134 257 vlineto
          endchar
        </CharString>
        <CharString name="twosuperior">
          -314 167 563 rmoveto
          14 3 3 14 vhcurveto
          22 299 callsubr
          -37 vlineto
          -19 -3 -20 -22 -18 vhcurveto
          -173 -146 rlineto
          -43 348 42 -159 vlineto
          123 99 rlineto
          27 25 9 27 54 vvcurveto
          52 vlineto
          29 -14 14 -29 vhcurveto
          -270 hlineto
          -29 -14 -14 -29 hvcurveto
          -74 150 vlineto
          endchar
        </CharString>
        <CharString name="u">
          -30 387 485 -29 callgsubr
        </CharString>
        <CharString name="uacute">
          -30 606 688 30 callsubr
          -42 -48 -29 callgsubr
        </CharString>
        <CharString name="ucircumflex">
          -30 339 616 rmoveto
          47 callgsubr
          -188 -163 rlineto
          222 hlineto
          121 -47 -29 callgsubr
        </CharString>
        <CharString name="udieresis">
          -7 617 263 callgsubr
          -319 141 100 callgsubr
          88 -47 -29 callgsubr
        </CharString>
        <CharString name="ugrave">
          -30 448 532 124 callgsubr
          124 -47 -29 callgsubr
        </CharString>
        <CharString name="uhungarumlaut">
          -30 550 533 rmoveto
          188 155 rlineto
          -208 hlineto
          -146 -155 rlineto
          87 155 rmoveto
          -208 hlineto
          -136 -155 rlineto
          166 hlineto
          93 -48 -29 callgsubr
        </CharString>
        <CharString name="umacron">
          -30 612 601 240 callgsubr
          -226 -58 -29 callgsubr
        </CharString>
        <CharString name="underscore">
          -24 10 -59 rmoveto
          668 59 -668 hlineto
          endchar
        </CharString>
        <CharString name="uni00AD">
          281 callgsubr
        </CharString>
        <CharString name="uni00B5">
          -23 393 485 rmoveto
          -397 vlineto
          -21 -12 -25 callgsubr
          -28 -59 callsubr
          395 -240 -626 240 141 39 vlineto
          33 16 9 17 9 hvcurveto
          -26 240 485 vlineto
          endchar
        </CharString>
        <CharString name="uni0122">
          -6 244 -290 15 callsubr
          420 454 27 callgsubr
        </CharString>
        <CharString name="uni0123">
          -37 478 777 rmoveto
          -73 hlineto
          -162 -161 rlineto
          -84 235 vlineto
          -157 75 callgsubr
        </CharString>
        <CharString name="uni0136">
          35 56 6 callgsubr
          -622 247 622 vlineto
          169 hmoveto
          243 callsubr
          -483 -912 160 callgsubr
        </CharString>
        <CharString name="uni0137">
          -42 231 -290 15 callsubr
          -175 714 184 callgsubr
        </CharString>
        <CharString name="uni013B">
          -128 194 -290 15 callsubr
          116 104 201 callgsubr
        </CharString>
        <CharString name="uni013C">
          -360 296 hmoveto
          307 callsubr
          -290 vmoveto
          73 hlineto
          163 161 rlineto
          84 -236 vlineto
          endchar
        </CharString>
        <CharString name="uni0145">
          40 460 126 callsubr
          -431 -912 160 callgsubr
        </CharString>
        <CharString name="uni0146">
          -30 234 -290 15 callsubr
          120 530 13 callsubr
        </CharString>
        <CharString name="uni0156">
          13 397 563 rmoveto
          26 5 -5 -26 hvcurveto
          -219 -26 callsubr
          -87 281 hlineto
          -340 vmoveto
          3 hlineto
          129 -223 rlineto
          266 hlineto
          -141 223 rlineto
          36 194 callgsubr
          -46 callgsubr
          -547 -622 254 hlineto
          -59 -290 160 callgsubr
        </CharString>
        <CharString name="uni0157">
          -240 57 -290 15 callsubr
          367 533 214 callsubr
        </CharString>
        <CharString name="uni015E">
          -20 396 90 -48 callsubr
          -169 -543 160 callgsubr
        </CharString>
        <CharString name="uni015F">
          62 callsubr
          -155 -471 160 callgsubr
        </CharString>
        <CharString name="uni0162">
          -103 182 -290 15 callsubr
          420 667 163 callsubr
        </CharString>
        <CharString name="uni0163">
          -103 182 -290 15 callsubr
          420 667 163 callsubr
        </CharString>
        <CharString name="uni0218">
          -20 396 90 -48 callsubr
          -173 -543 160 callgsubr
        </CharString>
        <CharString name="uni0219">
          62 callsubr
          -172 -471 160 callgsubr
        </CharString>
        <CharString name="uni021A">
          -103 185 -290 15 callsubr
          417 667 163 callsubr
        </CharString>
        <CharString name="uni021B">
          -285 100 -290 15 callsubr
          313 471 183 callsubr
        </CharString>
        <CharString name="uni02C9">
          -7 78 550 241 callsubr
          endchar
        </CharString>
        <CharString name="uni0901">
          -712 -435 685 rmoveto
          496 257 callgsubr
          89 -211 226 callsubr
          189 130 rmoveto
          118 102 -118 hlineto
          endchar
        </CharString>
        <CharString name="uni0902">
          -712 -314 687 268 callsubr
        </CharString>
        <CharString name="uni0902.aMatraI">
          -712 55 671 268 callsubr
        </CharString>
        <CharString name="uni0903">
          -309 120 396 rmoveto
          243 192 -243 hlineto
          -553 vmoveto
          243 191 -243 hlineto
          endchar
        </CharString>
        <CharString name="uni0905">
          376 1108 309 callsubr
          -261 -181 5 hlineto
          -72 callgsubr
          75 hlineto
          endchar
        </CharString>
        <CharString name="uni0906">
          750 1482 6 callgsubr
          -713 -261 -181 5 hlineto
          -72 callgsubr
          110 211 callgsubr
        </CharString>
        <CharString name="uni0907">
          11 659 189 callgsubr
          -763 27 callsubr
          endchar
        </CharString>
        <CharString name="uni0908">
          11 659 189 callgsubr
          -84 256 callgsubr
          49 59 -272 -71 callsubr
          -155 -415 27 callsubr
          endchar
        </CharString>
        <CharString name="uni09080902">
          11 659 760 300 callgsubr
          49 59 -272 -71 callsubr
          -155 -415 27 callsubr
          320 137 84 59 -84 hlineto
          44 134 rmoveto
          -95 98 95 vlineto
          endchar
        </CharString>
        <CharString name="uni0909">
          1 733 6 callgsubr
          -753 -59 380 118 callsubr
          186 164 callgsubr
          108 vlineto
          22 -6 13 -13 6 vhcurveto
          94 hlineto
          endchar
        </CharString>
        <CharString name="uni090A">
          356 1088 6 callgsubr
          -1108 -59 390 118 callsubr
          190 219 callsubr
          73 -94 callsubr
          -155 18 callsubr
          189 -89 callsubr
          -370 5 hlineto
          53 22 21 53 hvcurveto
          104 vlineto
          22 -6 13 -13 6 vhcurveto
          439 hlineto
          endchar
        </CharString>
        <CharString name="uni090B">
          69 callsubr
          356 hlineto
          -59 callgsubr
          -66 vlineto
          -24 -4 -9 -28 -1 vhcurveto
          -4 hlineto
          -23 -14 2 24 hvcurveto
          46 -259 -56 -106 callsubr
          430 -102 callgsubr
          85 vlineto
          53 -19 10 -34 vhcurveto
          4 vlineto
          36 17 18 43 hvcurveto
          122 223 callsubr
        </CharString>
        <CharString name="uni090C">
          78 callsubr
          -54 -71 callsubr
          -121 -106 callsubr
          347 59 -140 -97 callsubr
          87 68 callsubr
        </CharString>
        <CharString name="uni090D">
          48 638 182 callsubr
          641 -63 rmoveto
          -800 43 callsubr
        </CharString>
        <CharString name="uni090E">
          48 780 6 callgsubr
          -68 46 hlineto
          77 callsubr
          -468 -59 75 -488 vlineto
          50 callgsubr
        </CharString>
        <CharString name="uni090F">
          48 780 6 callgsubr
          -800 43 callsubr
        </CharString>
        <CharString name="uni0910">
          48 780 6 callgsubr
          -68 185 callsubr
          -483 43 callsubr
        </CharString>
        <CharString name="uni0911">
          750 1342 182 callsubr
          639 -63 rmoveto
          -713 -261 -181 5 hlineto
          -72 callgsubr
          110 211 callgsubr
        </CharString>
        <CharString name="uni0912">
          750 1482 6 callgsubr
          -75 46 hlineto
          77 callsubr
          -374 -261 -181 5 vlineto
          -72 callgsubr
          110 211 callgsubr
        </CharString>
        <CharString name="uni0913">
          750 1482 6 callgsubr
          -75 185 callsubr
          -389 -261 -181 5 hlineto
          -72 callgsubr
          110 211 callgsubr
        </CharString>
        <CharString name="uni0914">
          750 1482 6 callgsubr
          -75 hlineto
          -38 230 rlineto
          -165 109 callgsubr
          -372 -261 -181 5 hlineto
          -72 callgsubr
          110 211 callgsubr
        </CharString>
        <CharString name="uni0915">
          380 1112 304 callgsubr
          -1132 -59 434 -392 vlineto
          -26 -8 -8 -26 vhcurveto
          -37 hlineto
          -26 -8 9 24 hvcurveto
          223 vlineto
          24 8 9 26 vhcurveto
          21 59 -244 hlineto
          -53 -22 -22 -53 hvcurveto
          -27 callgsubr
        </CharString>
        <CharString name="uni0915093C">
          380 58 11 callsubr
          1054 550 rmoveto
          59 -1132 -59 434 -392 vlineto
          -26 -8 -8 -26 vhcurveto
          -37 hlineto
          -26 -8 9 24 hvcurveto
          223 vlineto
          24 8 9 26 vhcurveto
          21 59 -244 hlineto
          -53 -22 -22 -53 hvcurveto
          -27 callgsubr
        </CharString>
        <CharString name="uni0915093C094D">
          26 58 11 callsubr
          652 472 194 callsubr
          80 59 -778 -59 434 -392 vlineto
          -100 callsubr
          216 59 hlineto
          endchar
        </CharString>
        <CharString name="uni0915093C094D0915093C">
          1123 58 11 callsubr
          743 -150 -45 callsubr
          356 158 rmoveto
          -88 callsubr
          -397 hlineto
          -52 callsubr
          479 vlineto
          698 hmoveto
          59 -1875 -59 434 -392 vlineto
          -100 callsubr
          77 hlineto
          -37 callgsubr
          -27 callgsubr
        </CharString>
        <CharString name="uni0915093C094D0924">
          799 58 11 callsubr
          1137 472 rmoveto
          -485 hlineto
          -52 callsubr
          517 vlineto
          336 59 rmoveto
          -1551 -59 434 -392 hlineto
          -100 callsubr
          77 157 callgsubr
        </CharString>
        <CharString name="uni0915093C094D092B">
          1118 58 11 callsubr
          1099 158 rmoveto
          -26 -8 -8 -26 vhcurveto
          -47 hlineto
          -26 -8 9 24 hvcurveto
          393 255 callgsubr
          1062 78 rmoveto
          59 -1870 -59 434 -392 vlineto
          -100 callsubr
          76 -273 hlineto
          -50 callsubr
        </CharString>
        <CharString name="uni0915093C094D092B093C">
          1118 58 -163 -45 callsubr
          733 -124 -45 callsubr
          366 158 rmoveto
          -26 -8 -8 -26 vhcurveto
          -47 hlineto
          -26 -8 9 24 hvcurveto
          393 255 callgsubr
          1062 78 rmoveto
          59 -1870 -59 434 -392 vlineto
          -100 callsubr
          76 -273 hlineto
          -50 callsubr
        </CharString>
        <CharString name="uni0915093C094D092C">
          843 58 11 callsubr
          1000 413 rmoveto
          128 59 -476 hlineto
          -52 callsubr
          558 -240 vlineto
          264 callsubr
          -160 -58 54 callgsubr
          -1595 -59 434 -392 hlineto
          -100 callsubr
          77 hlineto
          -37 callgsubr
          -257 -23 callsubr
          -102 callsubr
        </CharString>
        <CharString name="uni0915093C094D092E">
          1124 58 11 callsubr
          1462 472 -68 callsubr
          59 vmoveto
          -438 hlineto
          -52 callsubr
          470 vlineto
          708 59 rmoveto
          -1876 -59 434 -392 hlineto
          -100 callsubr
          77 hlineto
          181 callgsubr
        </CharString>
        <CharString name="uni0915093C094D0930">
          383 227 -285 -45 callsubr
          888 698 rmoveto
          59 -1135 -5 callgsubr
          37 -94 callsubr
          -203 -13 callgsubr
          237 -89 callsubr
          -262 hlineto
          -52 callsubr
          vlineto
          endchar
        </CharString>
        <CharString name="uni0915093C094D0930094D">
          29 227 -285 -45 callsubr
          486 620 194 callsubr
          80 59 -781 -5 callgsubr
          241 59 hlineto
          endchar
        </CharString>
        <CharString name="uni0915094D">
          13 710 485 194 callsubr
          67 59 -765 -59 434 -392 vlineto
          -100 callsubr
          189 59 hlineto
          endchar
        </CharString>
        <CharString name="uni0915094D0915">
          1125 1159 171 rmoveto
          -88 callsubr
          -399 hlineto
          -52 callsubr
          481 vlineto
          698 hmoveto
          59 -1877 -59 434 -392 vlineto
          -100 callsubr
          79 hlineto
          -37 callgsubr
          -27 callgsubr
        </CharString>
        <CharString name="uni0915094D0916">
          1370 1114 303 rmoveto
          256 callsubr
          -342 hlineto
          -52 callsubr
          436 vlineto
          988 59 rmoveto
          -2122 -59 434 -392 hlineto
          -100 callsubr
          76 7 callsubr
        </CharString>
        <CharString name="uni0915094D091A">
          834 1227 171 21 callgsubr
          -107 hlineto
          131 callsubr
          -430 hlineto
          -52 callsubr
          549 vlineto
          31 callgsubr
          -1586 -59 434 -392 hlineto
          -100 callsubr
          95 132 callgsubr
          -232 -106 callsubr
          332 -102 callsubr
        </CharString>
        <CharString name="uni0915094D091C">
          1106 1499 485 rmoveto
          186 callgsubr
          -332 vlineto
          261 callgsubr
          31 callgsubr
          -1858 -59 434 -392 hlineto
          -100 callsubr
          76 207 callsubr
        </CharString>
        <CharString name="uni0915094D091F">
          742 1120 485 rmoveto
          -410 hlineto
          -52 callsubr
          442 vlineto
          264 -137 275 callsubr
          -1494 -59 434 -392 vlineto
          -100 callsubr
          77 139 callsubr
        </CharString>
        <CharString name="uni0915094D0923">
          1110 1152 13 callgsubr
          -442 -78 194 callsubr
          110 -78 vlineto
          1054 137 rmoveto
          -1862 -59 434 -392 hlineto
          -100 callsubr
          76 -273 hlineto
          143 callgsubr
          107 190 callsubr
        </CharString>
        <CharString name="uni0915094D0924">
          487 1219 304 callgsubr
          -1239 -59 506 -78 -481 -59 93 vlineto
          82 callsubr
          301 273 callsubr
          115 -426 261 392 hlineto
          -82 callsubr
          72 278 callgsubr
          -31 -59 254 124 callsubr
          -297 hlineto
          -52 callsubr
          vlineto
          endchar
        </CharString>
        <CharString name="uni0915094D0924094D092F">
          1446 1839 -52 callgsubr
          -2198 -59 434 -392 hlineto
          -100 callsubr
          84 hlineto
          -37 callgsubr
          -335 212 callgsubr
          -514 hlineto
          -52 callsubr
          753 vlineto
          -97 callgsubr
        </CharString>
        <CharString name="uni0915094D0924094D0930">
          828 1222 313 rmoveto
          294 callsubr
          -253 hlineto
          -52 callsubr
          544 vlineto
          338 59 rmoveto
          -1580 -59 434 -392 hlineto
          -100 callsubr
          50 hlineto
          45 22 -3 -31 27 hvcurveto
          107 -125 -224 -267 rlineto
          293 hlineto
          176 222 rlineto
          14 -222 299 callgsubr
        </CharString>
        <CharString name="uni0915094D0924094D0935">
          1204 1597 171 rmoveto
          -76 callgsubr
          -837 hlineto
          -52 callsubr
          919 vlineto
          31 callgsubr
          -1956 -59 434 -392 hlineto
          -100 callsubr
          77 hlineto
          -37 callgsubr
          -77 callsubr
          133 192 callgsubr
        </CharString>
        <CharString name="uni0915094D0925">
          1085 1817 622 153 callgsubr
          -88 vlineto
          -52 callsubr
          67 59 -765 -59 434 -392 vlineto
          -100 callsubr
          345 68 callgsubr
        </CharString>
        <CharString name="uni0915094D0926">
          734 1127 485 rmoveto
          -417 hlineto
          -52 callsubr
          449 vlineto
          264 -137 292 callsubr
          -1486 -59 434 -392 vlineto
          -100 callsubr
          67 hlineto
          -37 callgsubr
          33 callgsubr
        </CharString>
        <CharString name="uni0915094D0928">
          1106 1499 485 rmoveto
          -789 hlineto
          -14 -11 -3 -6 -7 hvcurveto
          87 821 vlineto
          21 callsubr
          -1858 -59 434 -392 hlineto
          -100 callsubr
          77 hlineto
          184 callsubr
        </CharString>
        <CharString name="uni0915094D092A">
          774 1167 -31 callgsubr
          -457 -78 194 callsubr
          120 -78 vlineto
          708 137 rmoveto
          -1526 -59 434 -392 hlineto
          -100 callsubr
          86 223 callgsubr
        </CharString>
        <CharString name="uni0915094D092A094D0930">
          764 1157 41 callgsubr
          -447 -78 194 callsubr
          110 -78 vlineto
          708 137 rmoveto
          -1516 -59 434 -392 hlineto
          -100 callsubr
          76 -223 123 callsubr
        </CharString>
        <CharString name="uni0915094D092B">
          1128 1167 -31 callgsubr
          -457 -78 194 callsubr
          120 -78 vlineto
          1062 78 rmoveto
          59 -1880 -59 434 -392 vlineto
          -100 callsubr
          86 -273 hlineto
          -50 callsubr
        </CharString>
        <CharString name="uni0915094D092E">
          1124 1520 -62 callsubr
          59 vmoveto
          -438 hlineto
          -52 callsubr
          470 vlineto
          708 59 rmoveto
          -1876 -59 434 -392 hlineto
          -100 callsubr
          77 hlineto
          181 callgsubr
        </CharString>
        <CharString name="uni0915094D092F">
          1000 1393 -52 callgsubr
          -1752 -59 434 -392 hlineto
          -100 callsubr
          66 59 -68 hlineto
          -52 callsubr
          307 vlineto
          -97 callgsubr
        </CharString>
        <CharString name="uni0915094D0930">
          383 1115 304 callgsubr
          -1135 -5 callgsubr
          37 -94 callsubr
          -203 -13 callgsubr
          237 -89 callsubr
          -262 hlineto
          -52 callsubr
          vlineto
          endchar
        </CharString>
        <CharString name="uni0915094D0930.aTrad">
          452 1184 304 callgsubr
          -1204 -59 512 -250 -21 vlineto
          29 callsubr
          14 -222 263 392 hlineto
          0 callgsubr
        </CharString>
        <CharString name="uni0915094D0930094D">
          29 713 485 194 callsubr
          80 59 -781 -5 callgsubr
          241 59 hlineto
          endchar
        </CharString>
        <CharString name="uni0915094D0932">
          1132 1525 485 rmoveto
          -161 hlineto
          -61 callgsubr
          -501 hlineto
          -52 callsubr
          847 vlineto
          31 callgsubr
          -1884 -59 434 -392 hlineto
          -100 callsubr
          76 hlineto
          -37 callgsubr
          -335 -83 callsubr
        </CharString>
        <CharString name="uni0915094D0935">
          774 1167 99 callgsubr
          31 callgsubr
          -1526 -59 434 -392 hlineto
          -100 callsubr
          77 192 callgsubr
        </CharString>
        <CharString name="uni0915094D0935094D092F">
          1380 1773 -96 callgsubr
          -697 -426 rmoveto
          -11 callsubr
          31 59 -397 hlineto
          -52 callsubr
          687 130 callsubr
          -198 hlineto
          -105 callgsubr
          988 485 rmoveto
          -2132 -59 434 -392 hlineto
          -100 callsubr
          67 hlineto
          -37 callgsubr
          -67 callsubr
          275 -51 callgsubr
        </CharString>
        <CharString name="uni0915094D0936">
          1120 868 6 callgsubr
          -103 callgsubr
          -62 -83 vlineto
          -52 callsubr
          67 59 -765 -59 434 -392 vlineto
          -100 callsubr
          345 104 7 callgsubr
          23 -94 callsubr
          -175 38 callsubr
          39 -264 -286 hlineto
          -57 callsubr
          171 32 callsubr
          209 -89 callsubr
          515 hmoveto
          -339 -622 128 callsubr
        </CharString>
        <CharString name="uni0915094D0937">
          402 430 392 37 callsubr
          704 93 rmoveto
          -338 -264 -138 hlineto
          -49 callsubr
          478 -299 299 callgsubr
        </CharString>
        <CharString name="uni0915094D0937094D">
          39 343 529 275 callgsubr
          19 hlineto
          -59 callgsubr
          -137 220 callsubr
          -19 -60 callsubr
          622 -93 rmoveto
          59 -307 vlineto
          -49 callsubr
          endchar
        </CharString>
        <CharString name="uni0915094D0937094D092E">
          1117 1513 -62 callsubr
          -711 -34 37 callsubr
          1419 93 rmoveto
          -1068 -59 360 -78 -285 -71 callsubr
          -52 -123 vlineto
          -49 callsubr
          463 292 callgsubr
          168 callsubr
        </CharString>
        <CharString name="uni0915094D0937094D092E094D">
          758 1151 126 callgsubr
          -48 -91 callgsubr
          82 hlineto
          -721 -34 37 callsubr
          1147 -44 rmoveto
          -162 78 75 59 -764 -59 425 -78 -285 -71 callsubr
          -52 -133 vlineto
          -49 callsubr
          473 292 callgsubr
          89 callgsubr
          162 vlineto
          endchar
        </CharString>
        <CharString name="uni0915094D0937094D092E094D092F">
          1720 2113 -96 callgsubr
          -972 38 callgsubr
          223 16 callsubr
          -711 -34 37 callsubr
          2022 93 rmoveto
          -1673 -59 362 -78 -285 -71 callsubr
          -52 -123 vlineto
          -49 callsubr
          463 292 callgsubr
          89 callgsubr
          93 59 -93 78 300 vlineto
          -97 callgsubr
        </CharString>
        <CharString name="uni0915094D0937094D092F">
          993 1386 171 21 callgsubr
          -283 -97 callsubr
          136 -56 callgsubr
          141 234 callgsubr
          -956 -164 21 callgsubr
          -19 -60 callsubr
          130 -88 callgsubr
          19 hlineto
          -59 callgsubr
          1295 93 rmoveto
          -954 -59 207 hlineto
          -59 callgsubr
          -131 -101 callsubr
          -320 hlineto
          17 7 7 17 29 vvcurveto
          129 60 callgsubr
          -129 vlineto
          113 callsubr
          -137 -106 callsubr
          300 -104 callgsubr
          228 -264 -57 220 callsubr
          -75 -60 callsubr
          101 -88 callgsubr
          453 -153 -84 callsubr
        </CharString>
        <CharString name="uni0915094D0937094D0935">
          767 430 392 37 callsubr
          1069 93 96 callsubr
          -52 -123 vlineto
          -49 callsubr
          463 -146 233 callgsubr
        </CharString>
        <CharString name="uni0915094D0938">
          1124 1517 133 callgsubr
          705 93 rmoveto
          -1876 -59 434 -392 hlineto
          -26 -8 -8 -26 vhcurveto
          -37 hlineto
          -26 -8 9 24 hvcurveto
          223 vlineto
          24 8 9 26 vhcurveto
          21 59 -244 hlineto
          -53 -22 -22 -53 hvcurveto
          -32 callgsubr
          465 -280 -55 callgsubr
          vlineto
          endchar
        </CharString>
        <CharString name="uni0915094D0938094D091F">
          1472 1593 485 rmoveto
          -103 callgsubr
          -71 -104 vlineto
          -73 callsubr
          454 -78 hlineto
          -699 -113 64 callsubr
          963 -103 275 callsubr
          -2224 -59 434 -392 vlineto
          -26 -8 -8 -26 vhcurveto
          -37 hlineto
          -26 -8 9 24 hvcurveto
          223 vlineto
          24 8 9 26 vhcurveto
          21 59 -244 hlineto
          -53 -22 -22 -53 hvcurveto
          -32 callgsubr
          466 156 callsubr
        </CharString>
        <CharString name="uni0915094D0938094D0921">
          1460 1590 485 rmoveto
          162 callgsubr
          448 -78 hlineto
          -693 -113 64 callsubr
          957 -103 rmoveto
          137 84 59 -2212 -59 434 -392 vlineto
          -26 -8 -8 -26 vhcurveto
          -37 hlineto
          -26 -8 9 24 hvcurveto
          223 vlineto
          24 8 9 26 vhcurveto
          21 59 -244 hlineto
          -53 -22 -22 -53 hvcurveto
          -32 callgsubr
          473 vlineto
          -19 11 21 -9 33 hhcurveto
          -62 callgsubr
          endchar
        </CharString>
        <CharString name="uni0915094D0938094D0924">
          1529 1925 485 rmoveto
          -332 -71 callsubr
          -71 -104 vlineto
          -73 callsubr
          529 hlineto
          -774 -191 64 callsubr
          1110 93 rmoveto
          -2281 -59 434 -392 hlineto
          -26 -8 -8 -26 vhcurveto
          -37 hlineto
          -26 -8 9 24 hvcurveto
          223 vlineto
          24 8 9 26 vhcurveto
          21 59 -244 hlineto
          -53 -22 -22 -53 hvcurveto
          -32 callgsubr
          466 -205 -82 callgsubr
          109 8 callsubr
          hlineto
          endchar
        </CharString>
        <CharString name="uni0915094D0938094D092A094D0930">
          1501 1894 41 callgsubr
          -480 235 callgsubr
          -374 33 64 callsubr
          1082 93 rmoveto
          -2253 -59 434 -392 hlineto
          -26 -8 -8 -26 vhcurveto
          -37 hlineto
          -26 -8 9 24 hvcurveto
          223 vlineto
          24 8 9 26 vhcurveto
          21 59 -244 hlineto
          -53 -22 -22 -53 hvcurveto
          -32 callgsubr
          473 -77 83 callsubr
        </CharString>
        <CharString name="uni0915094D0938094D092A094D0932">
          2234 2627 79 callsubr
          -1213 235 callgsubr
          -374 33 64 callsubr
          1815 93 rmoveto
          -2986 -59 434 -392 hlineto
          -26 -8 -8 -26 vhcurveto
          -37 hlineto
          -26 -8 9 24 hvcurveto
          223 vlineto
          24 8 9 26 vhcurveto
          21 59 -244 hlineto
          -53 -22 -22 -53 hvcurveto
          -32 callgsubr
          473 115 callsubr
          259 hlineto
          12 10 1 2 8 hvcurveto
          -6 -83 callsubr
        </CharString>
        <CharString name="uni0916">
          627 1359 6 callgsubr
          -1379 -59 391 -260 hlineto
          -24 -8 -9 -26 vhcurveto
          -28 161 -264 -356 9 callgsubr
        </CharString>
        <CharString name="uni0916093C">
          627 371 -215 -45 callsubr
          988 687 rmoveto
          -1379 -59 391 -260 hlineto
          -24 -8 -9 -26 vhcurveto
          -28 161 -264 -356 9 callgsubr
        </CharString>
        <CharString name="uni0916093C094D">
          267 371 -215 -45 callsubr
          -62 276 rmoveto
          247 hlineto
          122 callgsubr
          368 59 -1019 -59 391 -260 -101 callsubr
          -28 161 312 callgsubr
          591 59 -368 -97 callsubr
          654 87 rmoveto
          -74 callgsubr
          335 59 hlineto
          endchar
        </CharString>
        <CharString name="uni0916093C094D0924">
          1035 371 -241 -45 callsubr
          1396 713 rmoveto
          -1787 -67 callgsubr
          800 -78 -332 66 callsubr
          12 196 callsubr
          -48 -82 callgsubr
          109 8 callsubr
          hlineto
          endchar
        </CharString>
        <CharString name="uni0916093C094D092E">
          1360 371 -241 -45 callsubr
          1385 576 -68 callsubr
          708 196 rmoveto
          -2112 -67 callgsubr
          753 -78 -285 66 callsubr
          13 11 310 callsubr
          -32 7 23 -14 42 65 callgsubr
        </CharString>
        <CharString name="uni0916093C094D092F">
          1246 371 -241 -45 callsubr
          1268 262 -75 callsubr
          -1998 -67 callgsubr
          600 130 callsubr
          -156 17 callsubr
          13 11 310 callsubr
          -32 7 23 -14 42 250 callgsubr
        </CharString>
        <CharString name="uni0916093C094D0930">
          627 817 -285 -45 callsubr
          542 757 rmoveto
          -1379 -59 391 -250 hlineto
          -24 -8 -9 -26 vhcurveto
          -28 151 -264 -356 2 callgsubr
        </CharString>
        <CharString name="uni0916093C094D0930094D">
          122 callsubr
          205 -285 -45 callsubr
          146 325 140 callsubr
        </CharString>
        <CharString name="uni0916093C094D0935">
          1010 371 -241 -45 callsubr
          1371 713 rmoveto
          -1762 -67 callgsubr
          772 -392 vlineto
          -26 -8 -8 -26 vhcurveto
          -47 hlineto
          -26 -8 9 24 hvcurveto
          223 vlineto
          24 8 9 26 vhcurveto
          31 59 -254 hlineto
          145 callgsubr
          13 11 310 callsubr
          -32 7 23 -14 42 hhcurveto
          272 -102 callsubr
        </CharString>
        <CharString name="uni0916093C094D0936">
          1356 371 -241 -45 callsubr
          -62 302 rmoveto
          247 hlineto
          122 callgsubr
          368 59 -1019 3 callgsubr
        </CharString>
        <CharString name="uni0916093C094D0938">
          1360 371 -241 -45 callsubr
          1382 430 rmoveto
          -103 hlineto
          -73 callsubr
          121 hlineto
          31 callgsubr
          -2112 -67 callgsubr
          722 vlineto
          -56 callsubr
          137 -264 -264 17 callsubr
          12 196 callsubr
          -48 -12 callgsubr
        </CharString>
        <CharString name="uni0916094D">
          287 309 211 rmoveto
          247 hlineto
          122 callgsubr
          388 59 -1039 -59 391 -260 -101 callsubr
          -28 161 312 callgsubr
          591 59 -368 -97 callsubr
          654 87 rmoveto
          -74 callgsubr
          354 59 hlineto
          endchar
        </CharString>
        <CharString name="uni0916094D0916">
          1617 2349 6 callgsubr
          -2369 -67 callgsubr
          730 -260 -101 callsubr
          -28 161 -264 -219 hlineto
          -105 callgsubr
          -38 hlineto
          -74 callgsubr
          236 hlineto
          12 196 callsubr
          -48 vlineto
          8 callgsubr
        </CharString>
        <CharString name="uni0916094D0924">
          1034 1766 6 callgsubr
          -1786 -67 callgsubr
          799 -78 -332 vlineto
          -103 callgsubr
          -198 -101 callsubr
          -26 hlineto
          -74 callgsubr
          224 hlineto
          12 196 callsubr
          -48 -82 callgsubr
          109 8 callsubr
          hlineto
          endchar
        </CharString>
        <CharString name="uni0916094D0928">
          1342 1393 -2 callgsubr
          -2094 -67 callgsubr
          1104 -78 -636 66 callsubr
          13 11 310 callsubr
          -32 7 23 -14 42 hhcurveto
          20 callsubr
          88 -426 -36 callsubr
        </CharString>
        <CharString name="uni0916094D092E">
          1359 1755 -62 callsubr
          708 196 rmoveto
          -2111 -67 callgsubr
          752 -78 32 callgsubr
          -198 -101 callsubr
          -26 hlineto
          -74 callgsubr
          224 hlineto
          13 11 310 callsubr
          -32 7 23 -14 42 65 callgsubr
        </CharString>
        <CharString name="uni0916094D092F">
          1246 1639 -52 callgsubr
          -1998 -67 callgsubr
          600 130 callsubr
          -156 17 callsubr
          13 11 310 callsubr
          -32 7 23 -14 42 250 callgsubr
        </CharString>
        <CharString name="uni0916094D0930">
          627 1359 6 callgsubr
          -1379 -59 391 -250 hlineto
          -24 -8 -9 -26 vhcurveto
          -28 151 -264 -356 2 callgsubr
        </CharString>
        <CharString name="uni0916094D0930094D">
          122 callsubr
          351 190 140 callsubr
        </CharString>
        <CharString name="uni0916094D0935">
          1009 1741 6 callgsubr
          -1761 -67 callgsubr
          771 113 callgsubr
          -198 -101 callsubr
          -26 hlineto
          -74 callgsubr
          224 hlineto
          13 11 310 callsubr
          -32 7 23 -14 42 hhcurveto
          272 -102 callsubr
        </CharString>
        <CharString name="uni0916094D0936">
          1356 309 211 rmoveto
          247 hlineto
          122 callgsubr
          348 59 -999 3 callgsubr
        </CharString>
        <CharString name="uni0917">
          360 308 137 rmoveto
          -55 callsubr
          732 485 rmoveto
          -1112 -59 -66 callgsubr
          95 190 callsubr
        </CharString>
        <CharString name="uni0917093C">
          360 207 11 callsubr
          101 124 rmoveto
          -55 callsubr
          732 485 rmoveto
          -1112 -59 -66 callgsubr
          95 190 callsubr
        </CharString>
        <CharString name="uni0917093C094D">
          -4 207 11 callsubr
          101 290 callsubr
          163 240 callsubr
          -196 hlineto
          -105 callgsubr
          368 485 rmoveto
          -748 -59 414 -138 289 callgsubr
          -197 -106 callsubr
          -38 callgsubr
          410 70 vlineto
          endchar
        </CharString>
        <CharString name="uni0917093C094D0930">
          335 557 -324 -45 callsubr
          -262 372 74 callgsubr
        </CharString>
        <CharString name="uni0917093C094D0930094D">
          112 callsubr
          820 -5 rmoveto
          -75 136 -563 -390 rlineto
          307 hlineto
          -42 -204 268 callsubr
        </CharString>
        <CharString name="uni0917094D">
          -9 308 137 rmoveto
          -55 callsubr
          363 485 rmoveto
          -743 -59 49 callgsubr
          vlineto
          endchar
        </CharString>
        <CharString name="uni0917094D0917">
          1081 1029 137 rmoveto
          -55 callsubr
          -773 hmoveto
          -55 callsubr
          1453 485 rmoveto
          -1833 -59 -66 callgsubr
          457 -137 211 callsubr
          -198 -106 callsubr
          -38 callgsubr
          410 95 190 callsubr
        </CharString>
        <CharString name="uni0917094D0918">
          859 1252 171 21 callgsubr
          -162 81 callsubr
          196 hlineto
          -944 -426 rmoveto
          -55 callsubr
          1231 485 rmoveto
          -1611 -59 -66 callgsubr
          119 vlineto
          36 callsubr
          387 -102 callsubr
        </CharString>
        <CharString name="uni0917094D091C">
          1084 308 137 rmoveto
          -55 callsubr
          1456 485 rmoveto
          -1836 -59 -66 callgsubr
          819 -78 -342 -8 callgsubr
          88 -25 callsubr
          vlineto
          endchar
        </CharString>
        <CharString name="uni0917094D0923">
          1090 1132 13 callgsubr
          -824 -426 rmoveto
          -55 callsubr
          1462 485 rmoveto
          -1842 -59 -66 callgsubr
          110 92 callgsubr
          107 190 callsubr
        </CharString>
        <CharString name="uni0917094D0926">
          714 308 137 rmoveto
          -55 callsubr
          1011 289 292 callsubr
          -1466 -59 414 -137 211 callsubr
          -198 -106 callsubr
          -38 callgsubr
          410 449 -78 -274 vlineto
          -53 -22 -22 -53 hvcurveto
          33 callgsubr
        </CharString>
        <CharString name="uni0917094D0927">
          982 -22 callsubr
          1734 hmoveto
          -339 -451 hlineto
          -69 callsubr
          -275 -79 callgsubr
          269 callsubr
          -22 53 vhcurveto
          500 -102 callsubr
        </CharString>
        <CharString name="uni0917094D0927094D092F">
          1572 -22 callsubr
          1985 -451 -75 callsubr
          -954 -59 207 18 callgsubr
          -260 -79 callgsubr
          269 callsubr
          -22 53 vhcurveto
          487 -51 callgsubr
        </CharString>
        <CharString name="uni0917094D0927094D0935">
          1348 -22 callsubr
          2100 hmoveto
          17 callgsubr
        </CharString>
        <CharString name="uni0917094D0928">
          1066 1117 170 -99 callgsubr
          -809 226 callgsubr
          1438 485 rmoveto
          -1818 -59 -66 callgsubr
          801 -78 -636 vlineto
          -53 -22 -22 -53 hvcurveto
          -257 99 callsubr
        </CharString>
        <CharString name="uni0917094D0928094D092F">
          1693 1117 170 -99 callgsubr
          354 hmoveto
          59 -648 -35 callsubr
          vlineto
          715 -255 -105 callsubr
          -1778 -426 rmoveto
          -55 callsubr
          2065 485 rmoveto
          -2445 -59 -66 callgsubr
          1020 vlineto
          -97 callgsubr
        </CharString>
        <CharString name="uni0917094D092C">
          812 1055 222 callgsubr
          -863 hmoveto
          -55 callsubr
          1184 485 rmoveto
          -1564 -59 -66 callgsubr
          547 -240 vlineto
          150 callgsubr
        </CharString>
        <CharString name="uni0917094D092D">
          1103 -22 callsubr
          1147 -452 40 callgsubr
          708 308 rmoveto
          -339 -249 -105 174 hlineto
          -37 callsubr
          105 -314 -36 callsubr
        </CharString>
        <CharString name="uni0917094D092D094D092F">
          1673 -22 callsubr
          2086 -451 59 callsubr
          -958 -393 40 callgsubr
          1297 308 135 callsubr
          -286 174 hlineto
          -37 callsubr
          79 -161 -106 callsubr
          -90 callgsubr
        </CharString>
        <CharString name="uni0917094D092E">
          1094 1490 -62 callsubr
          -810 226 callgsubr
          1466 485 rmoveto
          -1846 -59 -66 callgsubr
          460 -3 callgsubr
          108 8 callsubr
          vlineto
          endchar
        </CharString>
        <CharString name="uni0917094D092F">
          978 1371 -96 callgsubr
          -1063 -426 rmoveto
          -55 callsubr
          1350 485 rmoveto
          -1730 -59 -66 callgsubr
          305 vlineto
          -97 callgsubr
        </CharString>
        <CharString name="uni0917094D0930">
          335 295 198 74 callgsubr
        </CharString>
        <CharString name="uni0917094D0930094D">
          112 callsubr
          745 131 rmoveto
          -563 -390 rlineto
          307 hlineto
          331 254 rlineto
          endchar
        </CharString>
        <CharString name="uni0917094D0930094D092F">
          954 1347 -96 callgsubr
          -1052 -365 85 callsubr
          1339 424 rmoveto
          -1706 -59 401 -78 -271 152 callgsubr
          447 -102 callgsubr
          349 307 130 callsubr
          -183 hlineto
          -440 -305 rlineto
          307 hlineto
          258 198 rlineto
          458 -102 callsubr
        </CharString>
        <CharString name="uni0917094D0932">
          1113 308 137 rmoveto
          -55 callsubr
          1485 485 rmoveto
          -1865 -59 -66 callgsubr
          848 101 callsubr
          -25 callsubr
          hlineto
          endchar
        </CharString>
        <CharString name="uni0917094D0935">
          743 308 137 rmoveto
          -55 callsubr
          1115 485 rmoveto
          -1495 -59 -66 callgsubr
          478 113 callgsubr
          50 callsubr
        </CharString>
        <CharString name="uni0917094D0938">
          1104 1497 339 rmoveto
          -103 hlineto
          -73 callsubr
          121 hlineto
          -1189 -426 rmoveto
          -55 callsubr
          1476 485 rmoveto
          -1856 -59 -66 callgsubr
          439 12 callsubr
          465 -280 -36 callsubr
        </CharString>
        <CharString name="uni0918">
          149 542 171 21 callgsubr
          -162 81 callsubr
          196 hlineto
          31 callgsubr
          -901 -59 87 hlineto
          36 callsubr
          387 -102 callsubr
        </CharString>
        <CharString name="uni0918094D">
          -239 346 137 rmoveto
          84 callgsubr
          147 59 -513 -59 87 hlineto
          36 callsubr
          483 59 hlineto
          endchar
        </CharString>
        <CharString name="uni0918094D0928">
          839 1232 185 callgsubr
          -141 81 callsubr
          886 hlineto
          21 callsubr
          -1591 -59 87 hlineto
          36 callsubr
          368 3 callsubr
        </CharString>
        <CharString name="uni0918094D092E">
          858 1254 -62 callsubr
          -360 -256 rmoveto
          -105 callgsubr
          -142 81 callsubr
          536 277 callgsubr
          -1610 -59 87 hlineto
          36 callsubr
          369 39 callgsubr
        </CharString>
        <CharString name="uni0918094D092F">
          744 1137 -96 callgsubr
          -791 -426 rmoveto
          84 callgsubr
          383 18 callgsubr
          988 485 rmoveto
          -1496 -59 87 hlineto
          36 callsubr
          369 -51 callgsubr
        </CharString>
        <CharString name="uni0918094D0930">
          156 549 191 21 callgsubr
          -162 hlineto
          -26 -8 9 24 hvcurveto
          95 57 callsubr
          196 hlineto
          31 callgsubr
          -908 -59 93 hlineto
          -13 -6 -5 -13 -22 vvcurveto
          -98 134 callgsubr
          147 hlineto
          -183 -188 rlineto
          273 hlineto
          182 201 rlineto
          -111 -36 callsubr
        </CharString>
        <CharString name="uni0918094D0930094D">
          -210 55 424 rmoveto
          -81 callgsubr
          -98 -106 callsubr
          147 hlineto
          -183 -188 rlineto
          273 hlineto
          186 205 rlineto
          61 42 -261 hlineto
          -26 -8 9 24 hvcurveto
          95 57 callsubr
          169 59 -542 -59 93 hlineto
          -13 -6 -5 -13 -22 vvcurveto
          endchar
        </CharString>
        <CharString name="uni0919">
          139 683 286 54 callsubr
        </CharString>
        <CharString name="uni0919094D">
          139 210 -60 46 callsubr
          209 346 54 callsubr
        </CharString>
        <CharString name="uni0919094D0930">
          142 686 312 callsubr
          -706 206 rmoveto
          -59 394 -78 -254 vlineto
          -103 callgsubr
          -81 -106 callsubr
          175 callsubr
          -107 220 callsubr
          -18 -97 callsubr
          61 -264 -78 -106 callsubr
          3 14 callgsubr
          1 -102 callgsubr
          143 1 callgsubr
          45 -88 callgsubr
          295 137 236 59 hlineto
          endchar
        </CharString>
        <CharString name="uni091A">
          135 867 6 callgsubr
          -887 -59 548 -392 hlineto
          -26 -8 -8 -26 vhcurveto
          -107 hlineto
          -16 callgsubr
          332 -102 callsubr
        </CharString>
        <CharString name="uni091A094D">
          -251 481 6 callgsubr
          -501 -59 501 hlineto
          -94 -426 rmoveto
          -16 callgsubr
          434 59 hlineto
          endchar
        </CharString>
        <CharString name="uni091A094D091A">
          608 1340 6 callgsubr
          -1360 -59 1001 146 callsubr
          -416 -59 83 132 callgsubr
          -215 -101 callsubr
          -121 -97 callsubr
          223 273 callsubr
          50 59 -426 -59 103 132 callgsubr
          -232 -106 callsubr
          348 -65 callsubr
          181 callsubr
          95 vlineto
          endchar
        </CharString>
        <CharString name="uni091A094D091B">
          824 1097 -38 callsubr
          459 hmoveto
          59 -1576 -59 590 120 callgsubr
          -61 vlineto
          -24 -8 -9 -26 vhcurveto
          -130 hlineto
          -16 callgsubr
          357 hlineto
          12 295 callsubr
          790 124 callsubr
          -75 78 hlineto
          endchar
        </CharString>
        <CharString name="uni091A094D091B094D0935">
          814 1084 47 callsubr
          -1566 -59 567 120 callgsubr
          -61 -101 callsubr
          -107 hlineto
          -16 callgsubr
          334 hlineto
          12 10 310 callsubr
          -44 3 23 -18 48 hhcurveto
          144 callgsubr
        </CharString>
        <CharString name="uni091A094D0928">
          839 890 -2 callgsubr
          -1591 -59 1252 -78 208 callsubr
          -100 hlineto
          -16 callgsubr
          327 3 callsubr
        </CharString>
        <CharString name="uni091A094D092E">
          857 1253 -62 callsubr
          708 196 rmoveto
          -1609 -59 901 259 callsubr
          -100 hlineto
          -16 callgsubr
          327 39 callgsubr
        </CharString>
        <CharString name="uni091A094D092F">
          733 1126 -52 callgsubr
          -1485 -59 738 18 callgsubr
          -90 hlineto
          -16 callgsubr
          317 -51 callgsubr
        </CharString>
        <CharString name="uni091A094D0930">
          135 867 6 callgsubr
          -887 -59 548 -372 hlineto
          -69 callsubr
          -107 249 callgsubr
          -59 221 callsubr
          170 253 callgsubr
          -36 callsubr
        </CharString>
        <CharString name="uni091A094D0930094D">
          -229 -20 563 rmoveto
          523 59 -523 hlineto
          25 -196 rmoveto
          221 callsubr
          174 204 rlineto
          44 43 -189 249 callgsubr
          hlineto
          endchar
        </CharString>
        <CharString name="uni091B">
          328 601 -38 callsubr
          459 hmoveto
          59 -1080 -59 94 vlineto
          -13 -6 -6 -13 -22 vvcurveto
          -138 45 callsubr
          53 -22 22 -53 vhcurveto
          -75 78 hlineto
          endchar
        </CharString>
        <CharString name="uni091B094D">
          323 1055 304 callgsubr
          -1075 -59 94 vlineto
          -13 -6 -6 -13 -22 vvcurveto
          -138 45 callsubr
          53 -22 22 -53 vhcurveto
          -393 -68 callgsubr
          endchar
        </CharString>
        <CharString name="uni091B094D0928">
          331 601 -38 callsubr
          462 hmoveto
          59 -1083 231 callgsubr
          177 callgsubr
          426 -69 -328 -71 callsubr
          -88 264 71 -106 callgsubr
          105 -142 244 270 120 124 callsubr
          -75 78 hlineto
          endchar
        </CharString>
        <CharString name="uni091B094D092F">
          1268 1661 -7 callgsubr
          -537 -1 hlineto
          1 -6 -6 0 -7 hhcurveto
          -393 -68 callgsubr
          1308 hlineto
          31 callgsubr
          -2020 -59 94 hlineto
          -13 -6 -6 -13 -22 vvcurveto
          -138 45 callsubr
          6 0 5 -1 5 vhcurveto
          259 -15 callgsubr
        </CharString>
        <CharString name="uni091B094D0930">
          328 601 311 callsubr
          -152 -106 callsubr
          202 59 -14 -97 callsubr
          118 -106 callgsubr
          17 -94 callsubr
          -281 60 callsubr
          134 -16 callsubr
          248 hlineto
          459 hmoveto
          59 -1080 -59 94 vlineto
          107 callsubr
          53 -22 22 -53 vhcurveto
          -75 78 hlineto
          endchar
        </CharString>
        <CharString name="uni091B094D0930094D092F">
          1268 1661 -7 callgsubr
          -949 -71 callsubr
          -152 -106 callsubr
          202 59 -14 -97 callsubr
          118 -106 callgsubr
          17 -94 callsubr
          -281 60 callsubr
          134 -16 callsubr
          1308 hlineto
          31 callgsubr
          -2020 -59 94 hlineto
          107 callsubr
          6 0 5 -1 5 vhcurveto
          259 -15 callgsubr
        </CharString>
        <CharString name="uni091B094D0935">
          341 611 47 callsubr
          -1093 231 callgsubr
          -136 -106 callsubr
          144 callgsubr
        </CharString>
        <CharString name="uni091C">
          363 1095 6 callgsubr
          -1115 -59 776 -78 -342 -315 hlineto
          -71 callgsubr
          88 -25 callsubr
          vlineto
          endchar
        </CharString>
        <CharString name="uni091C093C">
          363 230 11 callsubr
          865 609 rmoveto
          -1115 -59 776 -78 -342 -315 hlineto
          -71 callgsubr
          88 -25 callsubr
          vlineto
          endchar
        </CharString>
        <CharString name="uni091C093C094D">
          -1 731 6 callgsubr
          -751 -59 751 hlineto
          -501 -700 -45 callsubr
          629 472 rmoveto
          -445 -315 hlineto
          -71 callgsubr
          191 vlineto
          endchar
        </CharString>
        <CharString name="uni091C093C094D091C093C">
          1086 230 11 callsubr
          723 -150 -45 callsubr
          865 609 rmoveto
          -1838 -59 1499 179 callsubr
          -608 -8 callgsubr
          100 -273 99 callsubr
        </CharString>
        <CharString name="uni091C093C094D092F">
          980 230 -163 -45 callsubr
          528 439 rmoveto
          59 -344 -315 vlineto
          -24 -8 -9 -26 vhcurveto
          -47 hlineto
          -26 -8 9 24 hvcurveto
          315 -254 -332 vlineto
          -53 22 -22 53 vhcurveto
          129 callgsubr
          -1732 -59 985 hlineto
          -97 callgsubr
        </CharString>
        <CharString name="uni091C093C094D0930">
          350 51 -49 -45 callsubr
          1031 521 93 callsubr
        </CharString>
        <CharString name="uni091C093C094D0930094D">
          293 callsubr
          -684 -612 -45 callsubr
          563 -221 rmoveto
          393 304 rlineto
          183 vlineto
          -700 -487 rlineto
          700 605 rmoveto
          -596 56 callgsubr
          345 vlineto
          endchar
        </CharString>
        <CharString name="uni091C094D">
          11 743 6 callgsubr
          -763 -59 763 hlineto
          116 -78 rmoveto
          -445 -315 hlineto
          -71 callgsubr
          191 vlineto
          endchar
        </CharString>
        <CharString name="uni091C094D0915">
          1113 1845 304 callgsubr
          -1865 -59 1167 -392 vlineto
          -88 callsubr
          -683 -315 hlineto
          -71 callgsubr
          111 252 callgsubr
          -27 callgsubr
        </CharString>
        <CharString name="uni091C094D091C">
          1086 1818 6 callgsubr
          -1838 -59 1499 179 callsubr
          -608 -8 callgsubr
          100 -273 99 callsubr
        </CharString>
        <CharString name="uni091C094D091C094D091E">
          1083 1815 6 callgsubr
          -1835 -59 1496 -78 -1062 -315 hlineto
          -71 callgsubr
          108 252 callgsubr
          98 callsubr
        </CharString>
        <CharString name="uni091C094D091C094D092F">
          1713 1491 426 rmoveto
          59 -354 -315 vlineto
          -75 callgsubr
          315 -608 -8 callgsubr
          100 -273 -106 callsubr
          20 callsubr
          vlineto
          715 -40 callgsubr
          -2465 -59 1718 hlineto
          -97 callgsubr
        </CharString>
        <CharString name="uni091C094D091C094D0935">
          1467 2199 6 callgsubr
          -2219 -59 1880 -392 hlineto
          -76 callgsubr
          -673 -315 hlineto
          -75 callgsubr
          315 -608 -8 callgsubr
          100 -273 -106 callsubr
          20 callsubr
          91 vlineto
          199 callsubr
        </CharString>
        <CharString name="uni091C094D091D">
          1116 1509 331 rmoveto
          -438 61 callsubr
          124 hlineto
          31 callgsubr
          -1868 -59 1141 -78 -707 -315 hlineto
          -71 callgsubr
          106 252 callgsubr
          190 callgsubr
          239 86 callsubr
          -46 53 -273 -190 273 78 269 hlineto
          114 callsubr
          125 -272 128 callsubr
        </CharString>
        <CharString name="uni091C094D091E">
          360 1092 6 callgsubr
          -1112 -59 773 -78 -626 -71 callsubr
          98 callsubr
        </CharString>
        <CharString name="uni091C094D091E094D">
          8 740 6 callgsubr
          -760 -59 760 hlineto
          169 -137 rmoveto
          59 -782 vlineto
          -103 callgsubr
          116 callsubr
          endchar
        </CharString>
        <CharString name="uni091C094D091E094D092F">
          985 350 324 rmoveto
          -26 -8 8 26 hvcurveto
          34 -88 callgsubr
          413 59 -636 -71 callsubr
          154 callgsubr
          780 -153 -75 callsubr
          -1737 -59 990 hlineto
          -97 callgsubr
        </CharString>
        <CharString name="uni091C094D091F">
          732 1374 273 callgsubr
          -1484 -59 1130 -78 -696 -8 callgsubr
          111 vlineto
          65 callsubr
        </CharString>
        <CharString name="uni091C094D0921">
          723 1371 189 callgsubr
          -1475 -59 1127 -78 -693 -8 callgsubr
          111 88 callgsubr
        </CharString>
        <CharString name="uni091C094D0924">
          789 1521 6 callgsubr
          -1541 -59 1205 -78 -771 -315 hlineto
          -71 callgsubr
          111 157 callsubr
        </CharString>
        <CharString name="uni091C094D0926">
          732 1389 426 292 callsubr
          -1484 -59 1145 -78 -711 -8 callgsubr
          109 252 callgsubr
          33 callgsubr
        </CharString>
        <CharString name="uni091C094D0928">
          1086 1137 -2 callgsubr
          -1838 -59 1499 -78 -1065 -315 hlineto
          -71 callgsubr
          101 vlineto
          184 callsubr
        </CharString>
        <CharString name="uni091C094D092C">
          823 1066 137 54 callgsubr
          -1575 -59 1236 208 callgsubr
          -752 -315 hlineto
          -71 callgsubr
          101 252 callgsubr
          -257 -23 callsubr
          -102 callsubr
        </CharString>
        <CharString name="uni091C094D092E">
          1114 1510 -62 callsubr
          708 196 rmoveto
          -1866 -59 1158 -78 -724 -315 hlineto
          -71 callgsubr
          111 vlineto
          181 callgsubr
        </CharString>
        <CharString name="uni091C094D092F">
          990 768 426 rmoveto
          59 -354 -8 callgsubr
          vlineto
          715 -40 callgsubr
          -1742 -59 995 hlineto
          -97 callgsubr
        </CharString>
        <CharString name="uni091C094D0930">
          350 1082 622 93 callsubr
        </CharString>
        <CharString name="uni091C094D0930094D">
          293 callsubr
          -121 -683 rmoveto
          393 304 rlineto
          183 vlineto
          -700 -487 rlineto
          700 605 rmoveto
          -596 56 callgsubr
          345 vlineto
          endchar
        </CharString>
        <CharString name="uni091C094D0935">
          744 1476 6 callgsubr
          -1496 -59 1157 -392 hlineto
          -76 callgsubr
          -673 -315 hlineto
          -71 callgsubr
          91 vlineto
          199 callsubr
        </CharString>
        <CharString name="uni091D">
          393 786 331 rmoveto
          -438 61 callsubr
          124 hlineto
          31 callgsubr
          -1145 109 callsubr
          239 86 callsubr
          -46 53 -273 -190 273 78 269 hlineto
          114 callsubr
          125 -272 128 callsubr
        </CharString>
        <CharString name="uni091D094D">
          16 896 331 rmoveto
          -548 61 callsubr
          86 59 -768 10 callsubr
          224 hlineto
          endchar
        </CharString>
        <CharString name="uni091D094D0928">
          1091 1484 485 rmoveto
          -636 -71 callsubr
          -79 -425 vlineto
          -26 -8 8 26 hvcurveto
          27 -88 callgsubr
          314 137 822 hlineto
          21 callsubr
          -1843 10 callsubr
          101 -119 144 callsubr
        </CharString>
        <CharString name="uni091D094D092E">
          1119 1515 -62 callsubr
          -360 -95 rmoveto
          -435 61 callsubr
          481 277 callgsubr
          -1871 10 callsubr
          111 -119 hlineto
          -107 callsubr
          168 callsubr
        </CharString>
        <CharString name="uni091D094D092F">
          995 1388 -96 callgsubr
          -615 -232 rmoveto
          -425 61 callsubr
          318 hlineto
          -78 callgsubr
          hlineto
          954 254 rmoveto
          -1747 10 callsubr
          101 -119 -84 callsubr
        </CharString>
        <CharString name="uni091D094D0930">
          456 866 331 rmoveto
          -515 61 callsubr
          201 hlineto
          322 59 rmoveto
          -1208 -59 421 -78 -273 -71 callsubr
          190 callgsubr
          238 86 callsubr
          -45 53 -273 -190 273 78 268 hlineto
          114 callsubr
          203 -78 hlineto
          -28 callgsubr
        </CharString>
        <CharString name="uni091D094D0930094D">
          107 664 256 rmoveto
          182 callgsubr
          309 59 -621 61 callsubr
          174 59 -859 -59 421 -78 -273 -71 callsubr
          190 callgsubr
          238 86 callsubr
          -45 53 -273 -190 273 78 268 -102 callgsubr
          -251 -273 rmoveto
          307 hlineto
          253 194 rlineto
          194 vlineto
          endchar
        </CharString>
        <CharString name="uni091E">
          352 1084 6 callgsubr
          -1104 -59 765 -245 -102 92 hlineto
          24 callgsubr
          102 -259 -36 callsubr
        </CharString>
        <CharString name="uni091E094D">
          -14 718 6 callgsubr
          -738 -59 738 hlineto
          111 -245 rmoveto
          -186 92 hlineto
          24 callgsubr
          186 vlineto
          endchar
        </CharString>
        <CharString name="uni091E094D091B">
          1027 1300 -38 callsubr
          459 hmoveto
          59 -1779 -59 793 vlineto
          23 callsubr
          -138 vlineto
          -53 22 -21 53 vhcurveto
          -5 -186 105 vlineto
          67 callgsubr
          93 112 vlineto
          -1 -5 0 -5 -5 vvcurveto
          177 callgsubr
          790 124 callsubr
          -75 78 hlineto
          endchar
        </CharString>
        <CharString name="uni091E094D091C">
          1071 1803 6 callgsubr
          -1823 -59 1484 179 callsubr
          -254 -167 -110 92 vlineto
          24 callgsubr
          110 -106 99 callsubr
        </CharString>
        <CharString name="uni091E094D0930">
          350 1082 6 callgsubr
          -1102 -59 780 -210 -117 57 hlineto
          -86 callgsubr
          -363 -59 140 -94 callsubr
          -162 78 callgsubr
          80 117 -100 vlineto
          -28 callgsubr
        </CharString>
        <CharString name="uni091E094D0930094D">
          -16 843 6 callgsubr
          -863 -59 863 hlineto
          -275 -394 234 callsubr
          50 199 59 -199 57 -89 callsubr
          -363 -59 140 -94 callsubr
          -132 284 callgsubr
          69 -264 -86 -106 callsubr
          712 84 rmoveto
          -510 -353 rlineto
          307 hlineto
          250 184 rlineto
          endchar
        </CharString>
        <CharString name="uni091E094D0936">
          1085 643 6 callgsubr
          -663 -59 663 hlineto
          190 59 64 callgsubr
          -49 -110 86 hlineto
          67 callgsubr
          112 110 -190 1 callsubr
        </CharString>
        <CharString name="uni091F">
          2 644 273 callgsubr
          -754 -59 400 -78 -257 vlineto
          -53 -22 -22 -53 hvcurveto
          -21 callgsubr
        </CharString>
        <CharString name="uni091F094D">
          2 217 -60 46 callsubr
          163 486 275 callsubr
          -754 -59 400 -78 -257 vlineto
          -53 -22 -22 -53 hvcurveto
          -21 callgsubr
        </CharString>
        <CharString name="uni091F094D091F">
          67 701 101 callgsubr
          98 59 -819 -59 457 -78 -307 88 callsubr
          284 -64 289 callgsubr
          -195 -106 callsubr
          526 -102 callgsubr
          99 -264 -82 -101 callsubr
          -80 -97 callsubr
          161 -106 callgsubr
          315 123 hlineto
          44 4 19 22 49 vvcurveto
          99 -264 -82 -101 callsubr
          -80 -97 callsubr
          162 68 callsubr
        </CharString>
        <CharString name="uni091F094D0920">
          67 477 -178 rmoveto
          -105 callgsubr
          -100 -97 callsubr
          151 -106 callgsubr
          100 -94 callsubr
          224 453 rmoveto
          137 98 59 -819 -59 457 -78 -307 88 callsubr
          133 -74 -133 218 callgsubr
          -53 22 -22 53 vhcurveto
          526 -102 callgsubr
          185 -89 callsubr
          -135 74 135 -102 callgsubr
          99 -264 -82 -101 callsubr
          -80 -97 callsubr
          162 68 callsubr
        </CharString>
        <CharString name="uni091F094D0928">
          52 694 273 callgsubr
          -804 -59 450 -78 -307 229 callgsubr
          287 146 callgsubr
          15 -102 callgsubr
          179 -264 -162 -101 callsubr
          -80 -91 callsubr
          endchar
        </CharString>
        <CharString name="uni091F094D092F">
          942 1335 -7 callgsubr
          -506 78 691 hlineto
          31 callgsubr
          -1694 -59 400 -78 -257 -71 callsubr
          -335 -106 callsubr
          471 100 callsubr
          -259 11 callgsubr
          301 vlineto
          24 8 9 26 vhcurveto
          581 -15 callgsubr
        </CharString>
        <CharString name="uni091F094D0930">
          2 644 426 79 callgsubr
        </CharString>
        <CharString name="uni091F094D0930094D">
          2 230 -200 46 callsubr
          150 626 79 callgsubr
        </CharString>
        <CharString name="uni091F094D0935">
          108 485 139 rmoveto
          -136 220 callsubr
          -116 -97 callsubr
          104 -106 callgsubr
          397 287 rmoveto
          137 108 59 -860 -59 488 -78 -338 vlineto
          -103 callgsubr
          -165 -76 callsubr
          -107 -106 callsubr
          323 hlineto
          14 11 3 6 7 hvcurveto
          -58 224 278 vlineto
          44 4 19 22 49 vvcurveto
          94 -264 -77 -101 callsubr
          -126 -97 callsubr
          162 68 callsubr
        </CharString>
        <CharString name="uni0920">
          30 440 92 91 callgsubr
        </CharString>
        <CharString name="uni0920094D">
          30 229 -60 46 callsubr
          -53 152 91 callgsubr
        </CharString>
        <CharString name="uni0920094D0928">
          70 341 59 rmoveto
          -90 callsubr
          100 278 callgsubr
          361 504 rmoveto
          59 -822 -59 279 -78 -136 229 callgsubr
          288 146 callgsubr
          24 124 callsubr
          -136 78 hlineto
          endchar
        </CharString>
        <CharString name="uni0920094D092F">
          967 1360 -7 callgsubr
          -672 78 857 hlineto
          -920 -471 136 callsubr
          1259 229 rmoveto
          -1719 -59 259 -78 -116 -71 callsubr
          -335 -106 callsubr
          496 -102 callgsubr
          335 189 callsubr
          259 -15 callgsubr
        </CharString>
        <CharString name="uni0920094D0930">
          30 440 112 57 callgsubr
        </CharString>
        <CharString name="uni0920094D0930094D">
          30 241 -200 46 callsubr
          -65 312 57 callgsubr
        </CharString>
        <CharString name="uni0921">
          -13 635 189 callgsubr
          -739 -59 391 -78 -254 vlineto
          -53 -22 -22 -53 hvcurveto
          -83 vlineto
          -53 22 -22 53 vhcurveto
          -62 callgsubr
          endchar
        </CharString>
        <CharString name="uni0921093C">
          -13 222 -215 -45 callsubr
          413 491 rmoveto
          137 84 59 -739 -59 391 -78 -254 vlineto
          -53 -22 -22 -53 hvcurveto
          -83 vlineto
          -53 22 -22 53 vhcurveto
          -62 callgsubr
          endchar
        </CharString>
        <CharString name="uni0921093C094D0930">
          -2 224 -324 -45 callsubr
          414 600 -14 callgsubr
        </CharString>
        <CharString name="uni0921094D">
          -13 215 -60 46 callsubr
          156 486 rmoveto
          137 84 59 -739 -59 391 -78 -254 vlineto
          -53 -22 -22 -53 hvcurveto
          -83 vlineto
          -53 22 -22 53 vhcurveto
          -62 callgsubr
          endchar
        </CharString>
        <CharString name="uni0921094D0921">
          28 668 101 callgsubr
          92 59 -780 246 callgsubr
          -53 -106 callsubr
          274 hlineto
          -59 callgsubr
          -77 220 callsubr
          -48 -60 callsubr
          54 -264 -51 -76 callsubr
          -12 200 callsubr
          -72 -106 callsubr
          494 -102 callgsubr
          113 -89 callsubr
          -274 -60 callsubr
          17 -88 callgsubr
          271 -102 callgsubr
          113 -89 callsubr
          -274 -60 callsubr
          17 -88 callgsubr
          endchar
        </CharString>
        <CharString name="uni0921094D0922">
          25 668 101 callgsubr
          89 59 -777 246 callgsubr
          -53 200 callsubr
          -63 -76 callsubr
          -204 -106 callsubr
          495 -102 callgsubr
          100 -89 callsubr
          -240 -59 42 -94 callsubr
          -66 -101 callsubr
          -74 -91 callgsubr
          271 -102 callgsubr
          113 -89 callsubr
          -274 -60 callsubr
          17 -88 callgsubr
          endchar
        </CharString>
        <CharString name="uni0921094D0928">
          119 callgsubr
          -53 22 -22 53 vhcurveto
          286 146 callgsubr
          4 -102 callgsubr
          227 callgsubr
        </CharString>
        <CharString name="uni0921094D092F">
          935 1328 -7 callgsubr
          -505 78 690 hlineto
          31 callgsubr
          -1687 -59 394 -78 -254 hlineto
          -53 -22 -22 -53 hvcurveto
          -83 vlineto
          -53 22 -22 53 vhcurveto
          -62 callgsubr
          577 -15 callgsubr
        </CharString>
        <CharString name="uni0921094D0930">
          -2 638 426 -14 callgsubr
        </CharString>
        <CharString name="uni0921094D0930094D">
          -2 218 -199 46 callsubr
          156 625 -14 callgsubr
        </CharString>
        <CharString name="uni0921094D0935">
          78 335 -173 257 callsubr
          105 -106 callgsubr
          111 -137 hlineto
          -69 callsubr
          294 599 rmoveto
          137 104 59 -830 -59 462 -78 -312 vlineto
          -103 callgsubr
          -88 -106 callsubr
          307 hlineto
          -59 callgsubr
          -122 220 callsubr
          -84 188 callgsubr
          -264 -71 -76 callsubr
          -102 -106 callsubr
          284 hlineto
          14 11 3 6 7 hvcurveto
          -47 224 268 vlineto
          46 3 19 22 50 vvcurveto
          158 -89 callsubr
          -307 -60 callsubr
          52 -88 callgsubr
          endchar
        </CharString>
</ttFont>
